<svg width="22" height="25" viewBox="0 0 22 25" fill="none" xmlns="http://www.w3.org/2000/svg">
<path d="M4.82834 17.1426L1.58735 1.47778C1.58735 1.47778 7.25909 2.55812 7.25909 4.71878C7.25909 6.0692 5.09843 6.87945 5.90868 7.68969C6.71893 8.49994 9.68984 9.31019 9.68984 11.4709C9.68984 12.8213 8.80397 13.826 9.68984 14.7119C10.5001 15.5221 11.3103 15.0975 12.6608 14.7119C14.1732 14.2797 17.2522 13.9016 18.3325 14.1717C19.4128 14.4418 20.4932 14.9819 20.4932 16.6024C20.4932 17.4937 19.953 18.493 18.6026 18.7631C17.2522 19.0332 15.6317 17.6828 13.471 17.6828C11.3103 17.6828 8.60951 19.3033 6.98901 19.3033C5.36851 19.3033 4.82834 17.1426 4.82834 17.1426Z" stroke="white" stroke-width="2.16066" stroke-linejoin="round"/>
<path d="M18.3326 18.7632L19.9531 23.0845H2.12764L5.36864 18.7632" stroke="white" stroke-width="2.16066" stroke-linejoin="round"/>
</svg>
