<svg width="26" height="27" viewBox="0 0 26 27" fill="none" xmlns="http://www.w3.org/2000/svg">
<path d="M21.4343 7.9702L21.4451 7.95939L17.4263 3.94056L16.2811 5.08571L18.5606 7.36521C17.5451 7.75413 16.8213 8.72643 16.8213 9.88239C16.8213 10.2371 16.8911 10.5883 17.0269 10.9159C17.1626 11.2436 17.3615 11.5414 17.6123 11.7922C18.1188 12.2987 18.8058 12.5832 19.5221 12.5832C19.911 12.5832 20.2675 12.4968 20.6024 12.3563V20.1455C20.6024 20.4321 20.4886 20.7069 20.286 20.9095C20.0834 21.1121 19.8086 21.2259 19.5221 21.2259C19.2356 21.2259 18.9608 21.1121 18.7582 20.9095C18.5556 20.7069 18.4418 20.4321 18.4418 20.1455V15.284C18.4418 14.711 18.2141 14.1614 17.8089 13.7562C17.4037 13.351 16.8542 13.1234 16.2811 13.1234H15.2008V5.56106C15.2008 4.98801 14.9731 4.43844 14.5679 4.03323C14.1627 3.62803 13.6132 3.40039 13.0401 3.40039H6.55813C5.98508 3.40039 5.43551 3.62803 5.0303 4.03323C4.6251 4.43844 4.39746 4.98801 4.39746 5.56106V22.8464H15.2008V14.7439H16.8213V20.1455C16.8213 20.8618 17.1058 21.5488 17.6123 22.0553C18.1188 22.5618 18.8058 22.8464 19.5221 22.8464C19.8768 22.8464 20.228 22.7765 20.5557 22.6408C20.8834 22.5051 21.1811 22.3061 21.4319 22.0553C21.6827 21.8045 21.8816 21.5068 22.0174 21.1791C22.1531 20.8514 22.2229 20.5002 22.2229 20.1455V9.88239C22.2229 9.13696 21.9205 8.45635 21.4343 7.9702ZM13.0401 14.7439V20.6857H6.55813V13.1234H13.0401V14.7439ZM13.0401 10.9627H6.55813V5.56106H13.0401V10.9627ZM19.5221 10.9627C19.2356 10.9627 18.9608 10.8489 18.7582 10.6463C18.5556 10.4437 18.4418 10.1689 18.4418 9.88239C18.4418 9.59586 18.5556 9.32108 18.7582 9.11847C18.9608 8.91587 19.2356 8.80205 19.5221 8.80205C19.8086 8.80205 20.0834 8.91587 20.286 9.11847C20.4886 9.32108 20.6024 9.59586 20.6024 9.88239C20.6024 10.1689 20.4886 10.4437 20.286 10.6463C20.0834 10.8489 19.8086 10.9627 19.5221 10.9627Z" fill="white"/>
</svg>
