<svg width="26" height="27" viewBox="0 0 26 27" fill="none" xmlns="http://www.w3.org/2000/svg">
<path d="M3.31738 11.2784V17.7604M13.0404 5.87671V9.11771M10.8797 5.87671H15.201M5.47805 14.5194H3.31738M6.55838 11.2784H8.71904L10.8797 9.11771H14.5334C14.734 9.11781 14.9306 9.17376 15.1011 9.27927C15.2717 9.38479 15.4096 9.53571 15.4992 9.71513L17.0635 12.8416C17.1532 13.021 17.291 13.172 17.4616 13.2775C17.6322 13.383 17.8288 13.4389 18.0293 13.439H19.5224V11.2784H21.683C21.9696 11.2784 22.2443 11.3922 22.4469 11.5948C22.6495 11.7974 22.7634 12.0722 22.7634 12.3587V18.8407C22.7634 19.1272 22.6495 19.402 22.4469 19.6046C22.2443 19.8072 21.9696 19.921 21.683 19.921H19.5224V17.7604H16.2814V19.921C16.2814 20.2076 16.1676 20.4823 15.9649 20.6849C15.7623 20.8875 15.4876 21.0014 15.201 21.0014H11.4577C11.2799 21.0014 11.1048 20.9575 10.948 20.8737C10.7912 20.7898 10.6575 20.6685 10.5589 20.5206L8.71904 17.7604H6.55838V11.2784Z" stroke="white" stroke-width="2.16066" stroke-linecap="round" stroke-linejoin="round"/>
</svg>
