<svg width="25" height="24" viewBox="0 0 25 24" fill="none" xmlns="http://www.w3.org/2000/svg">
<path d="M16.01 2.83008H8.99C6.5 2.83008 5.95 4.07008 5.63 5.59008L4.5 11.0001H20.5L19.37 5.59008C19.05 4.07008 18.5 2.83008 16.01 2.83008Z" stroke="white" stroke-width="1.5" stroke-linecap="round" stroke-linejoin="round"/>
<path d="M22.4902 19.82C22.6002 20.99 21.6602 22 20.4602 22H18.5802C17.5002 22 17.3502 21.54 17.1602 20.97L16.9602 20.37C16.6802 19.55 16.5002 19 15.0602 19H9.94022C8.50022 19 8.29022 19.62 8.04022 20.37L7.84022 20.97C7.65022 21.54 7.50022 22 6.42022 22H4.54022C3.34022 22 2.40022 20.99 2.51022 19.82L3.07022 13.73C3.21022 12.23 3.50022 11 6.12022 11H18.8802C21.5002 11 21.7902 12.23 21.9302 13.73L22.4902 19.82Z" stroke="white" stroke-width="1.5" stroke-linecap="round" stroke-linejoin="round"/>
<path d="M4.5 8H3.5" stroke="white" stroke-width="1.5" stroke-linecap="round" stroke-linejoin="round"/>
<path d="M21.5 8H20.5" stroke="white" stroke-width="1.5" stroke-linecap="round" stroke-linejoin="round"/>
<path d="M12.5 3V5" stroke="white" stroke-width="1.5" stroke-linecap="round" stroke-linejoin="round"/>
<path d="M11 5H14" stroke="white" stroke-width="1.5" stroke-linecap="round" stroke-linejoin="round"/>
<path d="M6.5 15H9.5" stroke="white" stroke-width="1.5" stroke-linecap="round" stroke-linejoin="round"/>
<path d="M15.5 15H18.5" stroke="white" stroke-width="1.5" stroke-linecap="round" stroke-linejoin="round"/>
</svg>
