<svg width="45" height="45" viewBox="0 0 45 45" fill="none" xmlns="http://www.w3.org/2000/svg">
<g clip-path="url(#clip0_2144_1083)">
<path d="M43.8435 22.5C43.8435 22.404 43.8378 22.3094 43.8365 22.212C44.2248 22.1081 44.6131 21.9979 45 21.8834C44.9694 20.8237 44.8691 19.7654 44.6906 18.7191C44.2902 18.68 43.8877 18.648 43.4858 18.6203C43.1942 17.0343 42.7305 15.508 42.1089 14.0643C42.4261 13.821 42.7405 13.5693 43.0548 13.3146C42.6189 12.3467 42.1182 11.4086 41.552 10.5125C41.168 10.6305 40.7846 10.7557 40.4019 10.8845C39.5307 9.54387 38.5144 8.30769 37.3729 7.19824C37.5728 6.84976 37.7804 6.5076 37.9724 6.1527C37.2022 5.42443 36.3807 4.75093 35.5173 4.13499C35.2058 4.39242 34.9121 4.66269 34.6098 4.92592C33.3054 4.02469 31.8937 3.26733 30.4008 2.67346C30.4535 2.27373 30.4997 1.8726 30.5409 1.47146C29.5502 1.0916 28.5296 0.784336 27.4955 0.548262C27.3063 0.906768 27.1243 1.26308 26.9471 1.6222C25.5118 1.31845 24.0247 1.15567 22.4999 1.15567C22.3981 1.15567 22.2986 1.16139 22.197 1.1642C22.0917 0.775195 21.9972 0.386191 21.882 0C20.8237 0.0305859 19.7654 0.130869 18.7192 0.309375C18.6801 0.710508 18.648 1.11155 18.6203 1.51418C17.0322 1.8058 15.5081 2.26951 14.0643 2.88967C13.819 2.57317 13.5693 2.25879 13.3147 1.9452C12.3468 2.38043 11.4094 2.88114 10.5125 3.44804C10.6305 3.83203 10.7558 4.21541 10.8845 4.59809C9.54457 5.46855 8.30707 6.48562 7.19824 7.62706C6.84976 7.42649 6.50769 7.21811 6.15278 7.02756C5.42452 7.79704 4.75102 8.61855 4.13508 9.4827C4.39181 9.79418 4.66277 10.0886 4.92592 10.3917C4.02486 11.696 3.26742 13.1049 2.67284 14.5985C2.27382 14.548 1.87339 14.5011 1.47296 14.4598C1.09178 15.4527 0.784512 16.4704 0.54835 17.5038C0.906768 17.6929 1.26378 17.8757 1.62299 18.0528C1.31854 19.4881 1.15576 20.9752 1.15576 22.5C1.15576 22.596 1.16139 22.6927 1.16209 22.788C0.775195 22.8919 0.386191 23.0014 0 23.118C0.0305859 24.1755 0.130254 25.2338 0.30876 26.28C0.709189 26.3185 1.11164 26.3519 1.51418 26.3797C1.8058 27.9657 2.26951 29.4919 2.88967 30.9357C2.57317 31.1796 2.25949 31.43 1.9452 31.6846C2.37973 32.654 2.88044 33.5914 3.44795 34.4875C3.83203 34.3701 4.21532 34.2463 4.59659 34.1154C5.46847 35.4575 6.48554 36.6908 7.62706 37.8018C7.42649 38.1502 7.21811 38.4915 7.02756 38.8457C7.79634 39.5755 8.61847 40.2497 9.4827 40.8649C9.79418 40.6068 10.0879 40.3365 10.3902 40.0734C11.6946 40.9744 13.1049 41.7326 14.5985 42.3272C14.5465 42.7276 14.4988 43.128 14.4591 43.5292C15.4498 43.909 16.4696 44.2155 17.5045 44.4516C17.6922 44.0932 17.8757 43.7354 18.0527 43.377C19.488 43.6815 20.9751 43.8436 22.5 43.8436C22.6017 43.8436 22.7013 43.8379 22.8023 43.8372C22.9083 44.2241 23.0014 44.6131 23.1166 45C24.1749 44.9695 25.2339 44.8698 26.2794 44.6913C26.3185 44.2902 26.3519 43.8884 26.3797 43.4858C27.9657 43.1943 29.4921 42.732 30.9357 42.1089C31.179 42.4268 31.4293 42.7405 31.6839 43.0548C32.6533 42.6203 33.59 42.1189 34.4875 41.5521C34.3702 41.1687 34.2464 40.7847 34.1155 40.402C35.4554 39.5307 36.693 38.5151 37.8018 37.3729C38.1502 37.5742 38.4917 37.7811 38.8466 37.9724C39.5756 37.2022 40.2498 36.3815 40.8643 35.5173C40.6062 35.2058 40.3373 34.9121 40.0742 34.6097C40.9752 33.3054 41.7306 31.8944 42.3273 30.4008C42.7278 30.4534 43.1282 30.4989 43.5285 30.5387C43.9083 29.5501 44.2142 28.5296 44.4517 27.4954C44.0932 27.3077 43.7355 27.1242 43.377 26.9472C43.6815 25.512 43.8435 24.0255 43.8435 22.5ZM22.5 36.1049C14.9853 36.1049 8.89374 30.0147 8.89374 22.5C8.89374 14.9854 14.9853 8.89453 22.5 8.89453C30.0132 8.89453 36.1063 14.9854 36.1063 22.5C36.1063 30.0147 30.0133 36.1049 22.5 36.1049Z" fill="#A5FF2B"/>
<path d="M22.5 23.8151C23.2262 23.8151 23.815 23.2269 23.815 22.5C23.815 21.7732 23.2262 21.1843 22.5 21.1843C21.7725 21.1843 21.1836 21.7732 21.1836 22.5C21.1836 23.2269 21.7725 23.8151 22.5 23.8151Z" fill="#A5FF2B"/>
<path d="M13.7231 17.5507C13.8149 17.7974 14.014 17.9881 14.2636 18.0698L18.9541 19.594C19.3907 19.7348 19.8687 19.6601 20.2393 19.3899C20.6113 19.1196 20.8303 18.6886 20.8303 18.2292V13.3018C20.8303 13.0387 20.7094 12.7898 20.5039 12.6276C20.2976 12.4641 20.0287 12.4043 19.772 12.4641C19.772 12.4641 19.8425 12.4108 19.3688 12.5594C17.1547 13.2571 15.2594 14.6725 13.9572 16.5337C13.6904 16.9163 13.7936 16.8067 13.7936 16.8067C13.657 17.0308 13.6314 17.3046 13.7231 17.5507Z" fill="#A5FF2B"/>
<path d="M18.8432 23.6892C18.7017 23.2517 18.3589 22.9089 17.9236 22.7681L13.2366 21.2454C12.9848 21.1636 12.7132 21.202 12.4941 21.3471C12.2744 21.4929 12.1343 21.7311 12.1137 21.9929C12.1137 21.9929 12.0838 21.9097 12.0796 22.4068C12.0575 24.7268 12.8185 26.9664 14.1854 28.7807C14.467 29.1534 14.3945 29.0218 14.3945 29.0218C14.5659 29.2196 14.8184 29.3291 15.0802 29.3184C15.3433 29.3069 15.5866 29.1776 15.7408 28.9642L18.6383 24.9743C18.9101 24.6037 18.9847 24.1244 18.8432 23.6892Z" fill="#A5FF2B"/>
<path d="M23.6599 26.9357C23.3898 26.5652 22.9588 26.3455 22.5 26.3455C22.0412 26.3455 21.6102 26.5652 21.3393 26.9357L18.4439 30.9221C18.2889 31.1348 18.2405 31.4064 18.3109 31.6603C18.3828 31.9142 18.5648 32.1198 18.808 32.2222C18.808 32.2222 18.7192 32.2244 19.19 32.3821C21.3911 33.1197 23.756 33.0877 25.9038 32.3473C26.3454 32.1958 26.1968 32.2243 26.1968 32.2243C26.4387 32.1225 26.6207 31.9156 26.6904 31.6631C26.7622 31.4092 26.7125 31.1375 26.5581 30.9255L23.6599 26.9357Z" fill="#A5FF2B"/>
<path d="M31.7675 21.244L27.0763 22.7682C26.6411 22.909 26.2982 23.2517 26.156 23.6892C26.0144 24.1245 26.0899 24.6039 26.3602 24.9736L29.2569 28.96C29.4105 29.1741 29.6537 29.3021 29.9168 29.3149C30.1801 29.3256 30.4326 29.2146 30.6047 29.0155C30.6047 29.0155 30.5798 29.1002 30.8757 28.7012C32.2561 26.8364 32.9574 24.5762 32.9169 22.306C32.9091 21.8401 32.8899 21.9902 32.8899 21.9902C32.8693 21.7277 32.7277 21.4894 32.5086 21.3443C32.2901 21.2006 32.0164 21.1622 31.7675 21.244Z" fill="#A5FF2B"/>
<path d="M24.7592 19.3899C25.1313 19.6587 25.6091 19.7348 26.0451 19.5941L30.732 18.0699C30.9823 17.9888 31.1815 17.7975 31.2725 17.5507C31.3636 17.3046 31.3379 17.0301 31.2006 16.8047C31.2006 16.8047 31.2739 16.8545 30.9851 16.4505C29.6388 14.5601 27.7079 13.1952 25.5337 12.5309C25.0885 12.3958 25.2236 12.4598 25.2236 12.4598C24.9683 12.4 24.7002 12.4605 24.4933 12.6248C24.2884 12.7862 24.1689 13.0351 24.1689 13.2977V18.2292C24.1682 18.6886 24.3887 19.1196 24.7592 19.3899Z" fill="#A5FF2B"/>
</g>
<defs>
<clipPath id="clip0_2144_1083">
<rect width="45" height="45" fill="white"/>
</clipPath>
</defs>
</svg>
