<svg width="19" height="20" viewBox="0 0 19 20" fill="none" xmlns="http://www.w3.org/2000/svg">
<path d="M17.4343 4.9702L17.4451 4.95939L13.4263 0.940557L12.2811 2.08571L14.5606 4.36521C13.5451 4.75413 12.8213 5.72643 12.8213 6.88239C12.8213 7.23706 12.8911 7.58827 13.0269 7.91595C13.1626 8.24363 13.3615 8.54137 13.6123 8.79216C14.1188 9.29867 14.8058 9.58322 15.5221 9.58322C15.911 9.58322 16.2675 9.49679 16.6024 9.35635V17.1455C16.6024 17.4321 16.4886 17.7069 16.286 17.9095C16.0834 18.1121 15.8086 18.2259 15.5221 18.2259C15.2356 18.2259 14.9608 18.1121 14.7582 17.9095C14.5556 17.7069 14.4418 17.4321 14.4418 17.1455V12.284C14.4418 11.711 14.2141 11.1614 13.8089 10.7562C13.4037 10.351 12.8542 10.1234 12.2811 10.1234H11.2008V2.56106C11.2008 1.98801 10.9731 1.43844 10.5679 1.03323C10.1627 0.628031 9.61316 0.400391 9.04012 0.400391H2.55813C1.98508 0.400391 1.43551 0.628031 1.0303 1.03323C0.625102 1.43844 0.397461 1.98801 0.397461 2.56106V19.8464H11.2008V11.7439H12.8213V17.1455C12.8213 17.8618 13.1058 18.5488 13.6123 19.0553C14.1188 19.5618 14.8058 19.8464 15.5221 19.8464C15.8768 19.8464 16.228 19.7765 16.5557 19.6408C16.8834 19.5051 17.1811 19.3061 17.4319 19.0553C17.6827 18.8045 17.8816 18.5068 18.0174 18.1791C18.1531 17.8514 18.2229 17.5002 18.2229 17.1455V6.88239C18.2229 6.13696 17.9205 5.45635 17.4343 4.9702ZM9.04012 11.7439V17.6857H2.55813V10.1234H9.04012V11.7439ZM9.04012 7.96272H2.55813V2.56106H9.04012V7.96272ZM15.5221 7.96272C15.2356 7.96272 14.9608 7.8489 14.7582 7.6463C14.5556 7.44369 14.4418 7.16891 14.4418 6.88239C14.4418 6.59586 14.5556 6.32108 14.7582 6.11847C14.9608 5.91587 15.2356 5.80205 15.5221 5.80205C15.8086 5.80205 16.0834 5.91587 16.286 6.11847C16.4886 6.32108 16.6024 6.59586 16.6024 6.88239C16.6024 7.16891 16.4886 7.44369 16.286 7.6463C16.0834 7.8489 15.8086 7.96272 15.5221 7.96272Z" fill="white"/>
</svg>
