<svg width="40" height="40" viewBox="0 0 40 40" fill="none" xmlns="http://www.w3.org/2000/svg">
<path d="M3.3335 23.3333C3.3335 17.048 3.3335 13.9052 5.28611 11.9526C7.23875 10 10.3814 10 16.6668 10H23.3335C29.6188 10 32.7617 10 34.7142 11.9526C36.6668 13.9052 36.6668 17.048 36.6668 23.3333C36.6668 29.6187 36.6668 32.7615 34.7142 34.714C32.7617 36.6667 29.6188 36.6667 23.3335 36.6667H16.6668C10.3814 36.6667 7.23875 36.6667 5.28611 34.714C3.3335 32.7615 3.3335 29.6187 3.3335 23.3333Z" stroke="white" stroke-width="2"/>
<path d="M26.6668 9.99998C26.6668 6.85728 26.6668 5.28593 25.6905 4.30963C24.7142 3.33331 23.1428 3.33331 20.0002 3.33331C16.8575 3.33331 15.2861 3.33331 14.3098 4.30963C13.3335 5.28593 13.3335 6.85728 13.3335 9.99998" stroke="white" stroke-width="2"/>
<path d="M19.9998 28.8889C21.8408 28.8889 23.3332 27.6452 23.3332 26.1112C23.3332 24.577 21.8408 23.3334 19.9998 23.3334C18.1588 23.3334 16.6665 22.0897 16.6665 20.5555C16.6665 19.0215 18.1588 17.7779 19.9998 17.7779M19.9998 28.8889C18.1588 28.8889 16.6665 27.6452 16.6665 26.1112M19.9998 28.8889V30M19.9998 17.7779V16.6667M19.9998 17.7779C21.8408 17.7779 23.3332 19.0215 23.3332 20.5555" stroke="white" stroke-width="2" stroke-linecap="round"/>
</svg>
