<svg width="22" height="19" viewBox="0 0 22 19" fill="none" xmlns="http://www.w3.org/2000/svg">
<path d="M1.31738 7.27837V13.7604M11.0404 1.87671V5.11771M8.87971 1.87671H13.201M3.47805 10.5194H1.31738M4.55838 7.27837H6.71904L8.87971 5.11771H12.5334C12.734 5.11781 12.9306 5.17376 13.1011 5.27927C13.2717 5.38479 13.4096 5.53571 13.4992 5.71513L15.0635 8.84161C15.1532 9.02103 15.291 9.17195 15.4616 9.27747C15.6322 9.38298 15.8288 9.43893 16.0293 9.43904H17.5224V7.27837H19.683C19.9696 7.27837 20.2443 7.39219 20.4469 7.59479C20.6495 7.79739 20.7634 8.07218 20.7634 8.3587V14.8407C20.7634 15.1272 20.6495 15.402 20.4469 15.6046C20.2443 15.8072 19.9696 15.921 19.683 15.921H17.5224V13.7604H14.2814V15.921C14.2814 16.2076 14.1676 16.4823 13.9649 16.6849C13.7623 16.8875 13.4876 17.0014 13.201 17.0014H9.45769C9.27987 17.0014 9.1048 16.9575 8.94801 16.8737C8.79121 16.7898 8.65754 16.6685 8.55885 16.5206L6.71904 13.7604H4.55838V7.27837Z" stroke="white" stroke-width="2.16066" stroke-linecap="round" stroke-linejoin="round"/>
</svg>
