<svg width="30" height="40" viewBox="0 0 30 40" fill="none" xmlns="http://www.w3.org/2000/svg">
<path d="M9.12602 20.9524C11.3189 21.9318 14.7621 22.1056 14.7621 22.1056C14.839 22.1073 14.9144 22.1077 14.9899 22.1081V22.1083C14.9933 22.1083 14.9967 22.1082 15 22.1082C15.0034 22.1082 15.0069 22.1083 15.0103 22.1083V22.1081C15.0859 22.1077 15.1616 22.1071 15.2381 22.1056C15.2381 22.1056 18.6813 21.9318 20.874 20.9524C20.874 20.9524 21.1874 20.8788 21.1975 20.1601C21.1975 20.1601 21.0847 17.0111 20.1312 15.5953C20.1312 15.5953 19.8923 15.2284 19.2154 14.976C19.2154 14.976 17.0074 14.3032 16.8587 13.7317C16.8587 13.7317 16.1273 15.6255 15.0002 15.6042C13.8732 15.6255 13.1416 13.7317 13.1416 13.7317C12.9928 14.3033 10.785 14.9761 10.785 14.9761C10.113 15.2181 9.86902 15.5954 9.86902 15.5954C8.91551 17.0111 8.80273 20.1601 8.80273 20.1601C8.81275 20.8788 9.12602 20.9524 9.12602 20.9524Z" fill="white"/>
<path d="M12.5687 11.4844C12.7309 12.8467 13.9017 14.2574 14.9631 14.2574C16.1841 14.2574 17.3425 12.7715 17.5247 11.4845C17.5914 11.4369 17.707 11.3182 17.7455 11.0499C17.7455 11.0499 18.0045 10.1189 17.6584 10.2184C17.7822 9.8607 18.18 8.46004 17.4094 7.59088C17.4094 7.59088 17.05 7.09445 16.1675 6.83121C16.1324 6.80698 16.1042 6.78111 16.0673 6.75515C16.0673 6.75515 16.0872 6.77938 16.1105 6.817C16.0639 6.80525 16.012 6.79359 15.9601 6.78102C15.9116 6.72837 15.8549 6.67655 15.7964 6.62226C15.7964 6.62226 15.8517 6.67655 15.9134 6.771C15.8868 6.76427 15.8682 6.75515 15.8449 6.75343C15.8062 6.69076 15.7564 6.63055 15.6926 6.5687C15.6926 6.5687 15.7194 6.61552 15.7561 6.69067C15.589 6.57199 15.2653 6.29708 15.2653 5.99039C15.2653 5.99039 15.0587 6.08484 14.9435 6.25782C14.894 6.1807 14.9367 6.08985 14.9367 6.08985C14.8431 6.1425 14.5997 6.33889 14.5227 6.6055L14.4529 6.51104C14.3109 6.34809 14.0609 6.47343 14.0609 6.47343C14.0609 6.47343 12.7724 7.03088 12.3988 8.18669C12.3988 8.18669 12.1832 8.70653 12.4707 10.2367C12.0604 10.0436 12.3403 11.0499 12.3403 11.0499C12.3839 11.3198 12.4952 11.4385 12.5687 11.4844Z" fill="white"/>
<path d="M23.8588 1.623V0H21.2649V1.623H8.73559V0H6.14315V1.623H0.727539V40H29.2725V1.623H23.8588ZM2.21707 38.5158V3.10809H6.14331V5.18398H8.73575V3.10809H21.2683V5.18398H23.859V3.10809H27.7867L27.7868 38.5158H2.21707Z" fill="white"/>
<path d="M20.7772 33.5049H5.66113V35.0091H20.7772V33.5049Z" fill="white"/>
<path d="M25.2229 24.6947H5.65869V26.1921H25.2229V24.6947Z" fill="white"/>
<path d="M23.7421 27.705H5.65869V29.2109H23.7421V27.705Z" fill="white"/>
<path d="M22.258 30.63H5.65869V32.1259H22.258V30.63Z" fill="white"/>
</svg>
