<svg width="40" height="40" viewBox="0 0 40 40" fill="none" xmlns="http://www.w3.org/2000/svg">
<path d="M15 23.3334L17.9214 25.6705C18.6178 26.2276 19.6295 26.1378 20.2168 25.4665L25 20M26.6667 6.66671H28.3333C32.0152 6.66671 35 9.65148 35 13.3334V30C35 33.6819 32.0152 36.6667 28.3333 36.6667H11.6667C7.98477 36.6667 5 33.6819 5 30V13.3334C5 9.65148 7.98477 6.66671 11.6667 6.66671H13.3333M26.6667 6.66671C26.6667 8.50766 25.1743 10 23.3333 10H16.6667C14.8257 10 13.3333 8.50766 13.3333 6.66671M26.6667 6.66671C26.6667 4.82576 25.1743 3.33337 23.3333 3.33337H16.6667C14.8257 3.33337 13.3333 4.82576 13.3333 6.66671" stroke="white" stroke-width="2.5" stroke-linecap="round"/>
</svg>
