<svg width="53" height="41" viewBox="0 0 53 41" fill="none" xmlns="http://www.w3.org/2000/svg">
<path fill-rule="evenodd" clip-rule="evenodd" d="M16.5 15.5C16.5 9.97715 20.9771 5.5 26.5 5.5C32.0228 5.5 36.5 9.97715 36.5 15.5V18H39C43.8325 18 47.75 21.9175 47.75 26.75C47.75 31.5825 43.8325 35.5 39 35.5H36.5C35.1193 35.5 34 36.6193 34 38C34 39.3807 35.1193 40.5 36.5 40.5H39C46.594 40.5 52.75 34.344 52.75 26.75C52.75 19.9482 47.8112 14.2999 41.324 13.1956C40.2155 6.00533 34.0008 0.5 26.5 0.5C18.9993 0.5 12.7845 6.00533 11.6759 13.1956C5.18878 14.2999 0.25 19.9482 0.25 26.75C0.25 34.344 6.40608 40.5 14 40.5H16.5C17.8807 40.5 19 39.3807 19 38C19 36.6193 17.8807 35.5 16.5 35.5H14C9.1675 35.5 5.25 31.5825 5.25 26.75C5.25 21.9175 9.1675 18 14 18H16.5V15.5ZM35.7677 23.7323L28.2677 16.2323C27.2915 15.2559 25.7085 15.2559 24.7323 16.2323L17.2322 23.7323C16.2559 24.7085 16.2559 26.2915 17.2322 27.2677C18.2085 28.244 19.7915 28.244 20.7678 27.2677L24 24.0355V38C24 39.3807 25.1192 40.5 26.5 40.5C27.8808 40.5 29 39.3807 29 38V24.0355L32.2323 27.2677C33.2085 28.244 34.7915 28.244 35.7677 27.2677C36.744 26.2915 36.744 24.7085 35.7677 23.7323Z" fill="black"/>
</svg>
