<svg width="17" height="22" viewBox="0 0 17 22" fill="none" xmlns="http://www.w3.org/2000/svg">
<path d="M2.5 20.25C2.08579 20.25 1.75 20.5858 1.75 21C1.75 21.4142 2.08579 21.75 2.5 21.75V20.25ZM14.5 21.75C14.9142 21.75 15.25 21.4142 15.25 21C15.25 20.5858 14.9142 20.25 14.5 20.25V21.75ZM15.25 8.5C15.25 10.2065 14.1599 12.4136 12.6547 14.2468C11.9148 15.1481 11.1072 15.9179 10.3465 16.4554C9.56243 17.0094 8.92269 17.25 8.5 17.25V18.75C9.38982 18.75 10.3438 18.294 11.2121 17.6804C12.1038 17.0504 13.0071 16.1815 13.814 15.1987C15.4026 13.2638 16.75 10.7209 16.75 8.5H15.25ZM8.5 17.25C8.09247 17.25 7.45947 16.9993 6.671 16.4074C5.909 15.8353 5.09932 15.0178 4.35679 14.0668C2.84675 12.1327 1.75 9.82498 1.75 8.11111H0.25C0.25 10.3246 1.59075 12.9614 3.17446 14.9899C3.9788 16.0201 4.88006 16.9385 5.77041 17.6069C6.63428 18.2555 7.59503 18.75 8.5 18.75V17.25ZM1.75 8.11111C1.75 4.48059 4.97857 1.75 8.5 1.75V0.25C4.28944 0.25 0.25 3.51941 0.25 8.11111H1.75ZM8.5 1.75C11.9938 1.75 15.25 4.45503 15.25 8.5H16.75C16.75 3.54497 12.7382 0.25 8.5 0.25V1.75ZM10.75 8C10.75 9.24264 9.74264 10.25 8.5 10.25V11.75C10.5711 11.75 12.25 10.0711 12.25 8H10.75ZM8.5 10.25C7.25736 10.25 6.25 9.24264 6.25 8H4.75C4.75 10.0711 6.42893 11.75 8.5 11.75V10.25ZM6.25 8C6.25 6.75736 7.25736 5.75 8.5 5.75V4.25C6.42893 4.25 4.75 5.92893 4.75 8H6.25ZM8.5 5.75C9.74264 5.75 10.75 6.75736 10.75 8H12.25C12.25 5.92893 10.5711 4.25 8.5 4.25V5.75ZM2.5 21.75H14.5V20.25H2.5V21.75Z" fill="white"/>
</svg>
