<svg width="40" height="40" viewBox="0 0 40 40" fill="none" xmlns="http://www.w3.org/2000/svg">
<path fill-rule="evenodd" clip-rule="evenodd" d="M17.6562 3.8647C19.1385 3.15618 20.8618 3.15618 22.3442 3.8647C22.9882 4.1725 23.5782 4.67583 24.3953 5.37277C24.4377 5.40895 24.4808 5.44565 24.5245 5.48287C24.9212 5.82102 25.0462 5.92498 25.1727 6.00973C25.4943 6.2253 25.8555 6.3749 26.2353 6.4499C26.3847 6.47938 26.5465 6.49422 27.0662 6.5357C27.1233 6.54027 27.1798 6.54473 27.2353 6.54913C28.3058 6.63408 29.079 6.69543 29.752 6.93317C31.3013 7.48035 32.5198 8.6989 33.067 10.2481C33.3047 10.9211 33.366 11.6943 33.451 12.7648C33.4555 12.8204 33.4598 12.8768 33.4645 12.934C33.506 13.4536 33.5208 13.6155 33.5503 13.7649C33.6252 14.1447 33.7748 14.5059 33.9903 14.8275C34.0752 14.954 34.1792 15.0789 34.5173 15.4757C34.5545 15.5194 34.5912 15.5625 34.6273 15.6049C35.3243 16.4219 35.8277 17.012 36.1355 17.656C36.844 19.1383 36.844 20.8617 36.1355 22.344C35.8277 22.988 35.3243 23.578 34.6273 24.3952C34.5912 24.4375 34.5545 24.4805 34.5173 24.5243C34.1792 24.921 34.0752 25.046 33.9903 25.1725C33.7748 25.4942 33.6252 25.8553 33.5503 26.2352C33.5208 26.3845 33.506 26.5463 33.4645 27.066C33.4598 27.1231 33.4555 27.1797 33.451 27.2352C33.366 28.3057 33.3047 29.0788 33.067 29.7518C32.5198 31.3012 31.3013 32.5196 29.752 33.0668C29.079 33.3045 28.3058 33.3658 27.2353 33.4508C27.1798 33.4553 27.1233 33.4596 27.0662 33.4643C26.5465 33.5058 26.3847 33.5206 26.2353 33.5501C25.8555 33.625 25.4943 33.7746 25.1727 33.9901C25.0462 34.075 24.9212 34.179 24.5245 34.5171C24.4807 34.5543 24.4377 34.591 24.3953 34.6271C23.5782 35.3242 22.9882 35.8275 22.3442 36.1353C20.8618 36.8438 19.1385 36.8438 17.6562 36.1353C17.0122 35.8275 16.4221 35.3242 15.605 34.6271C15.5626 34.591 15.5196 34.5543 15.4759 34.5171C15.0791 34.179 14.9541 34.075 14.8277 33.9901C14.5061 33.7746 14.1449 33.625 13.7651 33.5501C13.6157 33.5206 13.4538 33.5058 12.9341 33.4643C12.8769 33.4596 12.8206 33.4553 12.765 33.4508C11.6944 33.3658 10.9213 33.3045 10.2483 33.0668C8.69908 32.5196 7.48053 31.3012 6.93335 29.7518C6.69562 29.0788 6.63427 28.3057 6.54932 27.2352C6.54492 27.1797 6.54045 27.1231 6.53588 27.066C6.4944 26.5463 6.47957 26.3845 6.45008 26.2352C6.37508 25.8553 6.22548 25.4942 6.00992 25.1725C5.92517 25.046 5.8212 24.921 5.48305 24.5243C5.44583 24.4806 5.40913 24.4375 5.37297 24.3952C4.67602 23.5782 4.17268 22.988 3.86488 22.344C3.15637 20.8617 3.15637 19.1383 3.86488 17.656C4.17268 17.012 4.67602 16.4219 5.37295 15.6048C5.40912 15.5624 5.44582 15.5194 5.48305 15.4757C5.8212 15.0789 5.92517 14.954 6.00992 14.8275C6.22548 14.5059 6.37508 14.1447 6.45008 13.7649C6.47957 13.6155 6.4944 13.4536 6.53588 12.934C6.54045 12.8768 6.54492 12.8204 6.54932 12.7648C6.63427 11.6943 6.69562 10.9211 6.93335 10.2481C7.48053 8.6989 8.69908 7.48035 10.2483 6.93317C10.9213 6.69543 11.6944 6.63408 12.765 6.54913C12.8206 6.54473 12.8769 6.54027 12.9341 6.5357C13.4538 6.49422 13.6157 6.47938 13.7651 6.4499C14.1449 6.3749 14.5061 6.2253 14.8277 6.00973C14.9541 5.92498 15.0791 5.82102 15.4759 5.48287C15.5196 5.44563 15.5626 5.40895 15.605 5.37277C16.4221 4.67583 17.0122 4.1725 17.6562 3.8647ZM21.2623 6.12815C20.4642 5.74663 19.5362 5.74663 18.738 6.12815C18.4295 6.27563 18.1042 6.53918 17.1032 7.39227C17.0867 7.40628 17.0705 7.4201 17.0545 7.43375C16.7258 7.71382 16.4861 7.91827 16.2244 8.09365C15.6271 8.49397 14.9564 8.77182 14.251 8.91108C13.9419 8.9721 13.6278 8.9971 13.1974 9.03137C13.1765 9.03303 13.1552 9.03472 13.1337 9.03643C11.8226 9.14107 11.4063 9.18472 11.0838 9.29863C10.2496 9.59327 9.59345 10.2494 9.29882 11.0836C9.1849 11.4061 9.14125 11.8224 9.03662 13.1335C9.0349 13.155 9.03322 13.1763 9.03155 13.1973C8.99728 13.6276 8.97228 13.9417 8.91127 14.2508C8.772 14.9562 8.49415 15.627 8.09383 16.2242C7.91845 16.4859 7.714 16.7257 7.43392 17.0543C7.42028 17.0703 7.40645 17.0865 7.39245 17.103C6.53937 18.104 6.27582 18.4293 6.12833 18.7378C5.74682 19.536 5.74682 20.464 6.12833 21.2622C6.27582 21.5707 6.53937 21.896 7.39245 22.897C7.40647 22.9135 7.42028 22.9296 7.43393 22.9457C7.714 23.2743 7.91845 23.514 8.09383 23.7757C8.49415 24.373 8.772 25.0438 8.91127 25.7492C8.97228 26.0582 8.99728 26.3723 9.03155 26.8027C9.03322 26.8237 9.0349 26.845 9.03662 26.8665C9.14125 28.1775 9.1849 28.5938 9.29882 28.9163C9.59345 29.7505 10.2496 30.4066 11.0838 30.7013C11.4063 30.8153 11.8226 30.859 13.1337 30.9635L13.1974 30.9686C13.6278 31.0028 13.9419 31.0278 14.251 31.0888C14.9564 31.2281 15.6271 31.506 16.2244 31.9063C16.4861 32.0816 16.7258 32.2861 17.0545 32.5661L17.1032 32.6076C18.1042 33.4608 18.4295 33.7243 18.738 33.8718C19.5362 34.2533 20.4642 34.2533 21.2623 33.8718C21.5708 33.7243 21.8962 33.4608 22.8972 32.6076L22.946 32.5661C23.2745 32.2861 23.5142 32.0816 23.7758 31.9063C24.3732 31.506 25.044 31.2281 25.7493 31.0888C26.0583 31.0278 26.3725 31.0028 26.8028 30.9686L26.8667 30.9635C28.1777 30.859 28.594 30.8153 28.9165 30.7013C29.7507 30.4066 30.4068 29.7505 30.7015 28.9163C30.8155 28.5938 30.8592 28.1775 30.9637 26.8665L30.9688 26.8027C31.003 26.3723 31.028 26.0582 31.089 25.7492C31.2283 25.0438 31.5062 24.373 31.9065 23.7757C32.0818 23.514 32.2863 23.2743 32.5663 22.9458L32.6078 22.897C33.461 21.896 33.7245 21.5707 33.872 21.2622C34.2535 20.464 34.2535 19.536 33.872 18.7378C33.7245 18.4293 33.461 18.104 32.6078 17.103L32.5663 17.0542C32.2863 16.7257 32.0818 16.4859 31.9065 16.2242C31.5062 15.627 31.2283 14.9562 31.089 14.2508C31.028 13.9417 31.003 13.6276 30.9688 13.1973L30.9637 13.1335C30.8592 11.8224 30.8155 11.4061 30.7015 11.0836C30.4068 10.2494 29.7507 9.59327 28.9165 9.29863C28.594 9.18472 28.1777 9.14107 26.8667 9.03643C26.8452 9.03472 26.8238 9.03303 26.8028 9.03137C26.3725 8.9971 26.0583 8.9721 25.7493 8.91108C25.044 8.77182 24.3732 8.49397 23.7758 8.09365C23.5142 7.91827 23.2745 7.71382 22.9458 7.43373C22.9298 7.4201 22.9137 7.40627 22.8972 7.39227C21.8962 6.53918 21.5708 6.27563 21.2623 6.12815ZM26.7407 14.9319C27.2307 15.4217 27.2307 16.2159 26.7407 16.7058L18.3785 25.0682C17.8885 25.558 17.0943 25.558 16.6045 25.0682L13.2596 21.7232C12.7697 21.2333 12.7697 20.4391 13.2596 19.9493C13.7494 19.4595 14.5437 19.4595 15.0335 19.9493L17.4915 22.4072L24.9668 14.9319C25.4567 14.442 26.2508 14.442 26.7407 14.9319Z" fill="white"/>
</svg>
