<svg width="24" height="25" viewBox="0 0 24 25" fill="none" xmlns="http://www.w3.org/2000/svg">
<path d="M6 21.522C5.58579 21.522 5.25 21.8578 5.25 22.272C5.25 22.6862 5.58579 23.022 6 23.022V21.522ZM18 23.022C18.4142 23.022 18.75 22.6862 18.75 22.272C18.75 21.8578 18.4142 21.522 18 21.522V23.022ZM18.75 9.77197C18.75 11.4784 17.6599 13.6856 16.1547 15.5188C15.4148 16.4201 14.6072 17.1898 13.8465 17.7274C13.0624 18.2814 12.4227 18.522 12 18.522V20.022C12.8898 20.022 13.8438 19.566 14.7121 18.9524C15.6038 18.3223 16.5071 17.4535 17.314 16.4706C18.9026 14.5357 20.25 11.9929 20.25 9.77197H18.75ZM12 18.522C11.5925 18.522 10.9595 18.2713 10.171 17.6793C9.409 17.1073 8.59932 16.2898 7.85679 15.3387C6.34675 13.4046 5.25 11.097 5.25 9.38308H3.75C3.75 11.5966 5.09075 14.2333 6.67446 16.2618C7.4788 17.2921 8.38006 18.2105 9.27041 18.8789C10.1343 19.5275 11.095 20.022 12 20.022V18.522ZM5.25 9.38308C5.25 5.75256 8.47857 3.02197 12 3.02197V1.52197C7.78944 1.52197 3.75 4.79138 3.75 9.38308H5.25ZM12 3.02197C15.4938 3.02197 18.75 5.72701 18.75 9.77197H20.25C20.25 4.81694 16.2382 1.52197 12 1.52197V3.02197ZM14.25 9.27197C14.25 10.5146 13.2426 11.522 12 11.522V13.022C14.0711 13.022 15.75 11.343 15.75 9.27197H14.25ZM12 11.522C10.7574 11.522 9.75 10.5146 9.75 9.27197H8.25C8.25 11.343 9.92893 13.022 12 13.022V11.522ZM9.75 9.27197C9.75 8.02933 10.7574 7.02197 12 7.02197V5.52197C9.92893 5.52197 8.25 7.2009 8.25 9.27197H9.75ZM12 7.02197C13.2426 7.02197 14.25 8.02933 14.25 9.27197H15.75C15.75 7.2009 14.0711 5.52197 12 5.52197V7.02197ZM6 23.022H18V21.522H6V23.022Z" fill="white"/>
</svg>
