<svg width="254" height="28" viewBox="0 0 254 28" fill="none" xmlns="http://www.w3.org/2000/svg">
<path d="M244.983 0H249.059V0.947928H247.522V5.7048H246.52V0.947928H244.983V0ZM249.94 0H250.873L251.979 2.20609L253.067 0H254V5.7048H253.015V2.06821L252.324 3.49871H251.633L250.925 2.03374V5.7048H249.94V0Z" fill="white"/>
<path d="M226.307 22.5682V22.6581H242.936V27.2721H220.794V21.6094C220.794 19.0028 221.334 18.5834 225.169 16.8157L233.768 13.1005C236.584 11.8421 237.063 11.8122 237.063 11.153C237.063 11.0032 237.063 10.9433 237.063 10.9133H221.543V6.29932H242.576V12.1118C242.576 14.4487 242.217 15.018 238.202 16.8756L229.603 20.6207C226.607 21.7892 226.307 21.969 226.307 22.5682Z" fill="white"/>
<path d="M198.639 27.2721V6.29932H219.702V10.9133H204.152V14.4787H215.687V19.0927H204.152V22.6281H219.702V27.2721H198.639Z" fill="white"/>
<path d="M188.399 6.29932C193.852 6.29932 196.339 8.84601 196.339 13.2503V20.3211C196.339 24.7254 193.852 27.2721 188.399 27.2721H172.37V6.29932H188.399ZM190.856 19.0627V14.5086C190.856 12.0219 189.538 10.9133 187.021 10.9133H177.883V22.6281H187.021C189.538 22.6281 190.856 21.5495 190.856 19.0627Z" fill="white"/>
<path d="M169.696 27.2721H164.183V6.29932H169.696V27.2721Z" fill="white"/>
<path d="M158.338 17.8643C158.967 18.3137 159.476 18.9129 159.836 19.7818L162.652 27.2721H156.72L154.503 21.4297C153.903 20.0215 153.034 19.7219 150.937 19.7219H146.353V27.2721H140.84V6.29932H156.001C162.892 6.29932 163.611 15.3176 158.338 17.8643ZM154.293 15.1079C156.78 15.1079 156.84 10.9133 154.323 10.9133H146.353V15.1079H154.293Z" fill="white"/>
<path d="M117.996 27.2721V6.29932H139.058V10.9133H123.508V14.4787H135.043V19.0927H123.508V22.6281H139.058V27.2721H117.996Z" fill="#A5FF2B"/>
<path d="M109.736 6.29952H115.279V27.2723H109.796V12.9209L104.043 21.8194C103.444 22.7182 103.264 23.1676 100.957 23.1676C98.7104 23.1676 98.4707 22.7182 97.8715 21.8194L92.1489 12.9209V27.2723H86.6361V6.29952H92.2089C94.0964 6.29952 94.3061 6.17968 97.9914 11.7524L100.957 15.947L103.924 11.7524C107.609 6.17968 107.819 6.29952 109.736 6.29952Z" fill="#A5FF2B"/>
<path d="M83.9616 27.2721H78.4487V6.29932H83.9616V27.2721Z" fill="#A5FF2B"/>
<path d="M55.1274 10.9133V6.29932H77.3885V10.9133H68.9994V27.2721H63.5165V10.9133H55.1274Z" fill="#A5FF2B"/>
<path d="M31.8126 13.2503C31.8126 8.84601 34.2994 6.29932 39.7523 6.29932H54.1636V10.9133H41.1305C38.6138 10.9133 37.3255 12.0219 37.3255 14.5086V19.0627C37.3255 21.5495 38.6138 22.6281 41.1305 22.6281H48.6807V19.4822H42.6885V14.8382H54.1636V27.2721H39.7523C34.2994 27.2721 31.8126 24.7254 31.8126 20.3211V13.2503Z" fill="white"/>
<path d="M29.5579 27.2721H24.045V6.29932H29.5579V27.2721Z" fill="white"/>
<path d="M18.9354 16.3363C24.628 18.853 22.8603 27.2721 16.1191 27.2721H0V6.29932H15.1603C21.3323 6.29932 22.5607 13.1604 18.9354 16.3363ZM5.51284 10.9133V14.4787H13.4525C15.9393 14.4787 15.9992 10.9133 13.4825 10.9133H5.51284ZM14.4113 22.6581C17.3175 22.6581 17.3175 19.0927 14.4113 19.0927H5.51284V22.6581H14.4113Z" fill="white"/>
</svg>
