<svg width="96" height="96" viewBox="0 0 96 96" fill="none" xmlns="http://www.w3.org/2000/svg">
<path d="M67.9211 3.61503L27.91 3.61426C24.811 3.61426 22.292 6.13401 22.292 9.233V86.4166C22.2918 87.1546 22.4369 87.8854 22.7192 88.5673C23.0014 89.2491 23.4151 89.8687 23.9368 90.3907C24.4585 90.9127 25.0779 91.3268 25.7596 91.6093C26.4413 91.8919 27.172 92.0375 27.91 92.0377H67.9595C69.4537 92.0377 70.8357 91.4492 71.892 90.3945C72.9537 89.3305 73.5022 87.9139 73.5022 86.4166V9.23224C73.5022 6.13785 71.0254 3.61503 67.9211 3.61503ZM71.4925 86.4166C71.4925 87.3769 71.156 88.2857 70.4723 88.9717C69.7924 89.6501 68.9198 90.0265 67.9595 90.0265H27.91C27.4361 90.0273 26.9667 89.9343 26.5289 89.753C26.0911 89.5718 25.6934 89.3057 25.3587 88.9702C25.0232 88.6351 24.7571 88.237 24.5758 87.7988C24.3946 87.3606 24.3017 86.8909 24.3024 86.4166V9.233C24.3034 8.27626 24.6839 7.35898 25.3603 6.68239C26.0368 6.00579 26.954 5.62514 27.9107 5.62392L67.9218 5.62468C69.9192 5.62468 71.4925 7.24716 71.4925 9.23224V86.4166Z" fill="url(#paint0_linear_58_3227)"/>
<path d="M68.9905 87.549C69.2947 87.2448 69.4214 86.8422 69.4214 86.4151V9.23221C69.4214 8.35721 68.7462 7.63431 67.8612 7.63431L27.8485 7.63354C27.4247 7.63456 27.0186 7.80342 26.719 8.10317C26.4194 8.40293 26.2507 8.80916 26.2499 9.23298V86.4166C26.2493 86.6267 26.2902 86.8348 26.3702 87.0291C26.4503 87.2233 26.568 87.3998 26.7164 87.5484C26.8649 87.697 27.0413 87.8148 27.2355 87.8951C27.4296 87.9753 27.6377 88.0165 27.8478 88.016H67.8958C68.3267 88.016 68.6886 87.8501 68.9905 87.549Z" fill="url(#paint1_linear_58_3227)"/>
<path d="M71.4272 89.9298C70.4938 90.8601 69.28 91.3794 67.9587 91.3794H27.9099C27.2582 91.3799 26.6129 91.2516 26.0109 91.0019C25.409 90.7522 24.8623 90.386 24.4022 89.9244C23.9417 89.4639 23.5764 88.9172 23.3273 88.3154C23.0782 87.7137 22.9501 87.0688 22.9503 86.4175V9.23309C22.9515 7.91802 23.4744 6.65715 24.4043 5.72719C25.3341 4.79722 26.5949 4.27413 27.9099 4.27271L67.921 4.27347C70.6613 4.27347 72.8415 6.50131 72.8415 9.23232V86.4167C72.843 87.7388 72.3659 88.9887 71.4272 89.9298Z" stroke="#EC008C" stroke-width="0.165935" stroke-miterlimit="22.926"/>
<path d="M29.2192 85.6279L30.5052 85.6264C30.4161 85.3923 30.3677 85.1447 30.3623 84.8943V80.7167C30.3623 80.3956 30.5582 80.4132 30.7019 80.5922L34.9678 85.6271H36.2715L31.8442 80.4148C31.7375 80.2903 31.7536 80.0937 31.9141 80.0937H32.3805C32.9627 80.0936 33.521 79.8622 33.9326 79.4504C34.3442 79.0387 34.5754 78.4803 34.5753 77.8981C34.5752 77.3159 34.3438 76.7576 33.932 76.346C33.5203 75.9344 32.9619 75.7032 32.3797 75.7033H29.22C29.2907 75.9 29.3437 76.0782 29.3629 76.437V84.8981C29.3567 85.1478 29.3081 85.3945 29.2192 85.6279ZM30.3593 76.682H32.3758C32.5334 76.682 32.6894 76.7129 32.8349 76.7732C32.9805 76.8334 33.1128 76.9217 33.2242 77.0331C33.3356 77.1444 33.424 77.2766 33.4843 77.4222C33.5447 77.5677 33.5758 77.7237 33.5758 77.8812C33.5759 78.0387 33.5449 78.1947 33.4846 78.3403C33.4244 78.4858 33.3361 78.6181 33.2247 78.7295C33.1134 78.841 32.9812 78.9294 32.8356 78.9897C32.6901 79.05 32.5341 79.0811 32.3766 79.0812L30.3593 79.0781V76.682ZM57.8914 42.938C56.1268 47.373 52.0445 48.7842 52.0445 48.7842L53.5057 51.8086C53.5057 51.8086 53.7131 51.7579 54.0657 51.6327C54.9691 52.6529 58.5237 57.1155 58.6988 64.1101C58.6988 64.1086 58.9493 66.9833 56.3788 68.9983H64.1931C64.1931 68.9983 63.1837 68.343 62.7811 66.5285C62.3778 64.7147 62.4769 61.5381 60.7646 57.7063C59.3833 54.6226 57.482 51.4407 56.7929 50.3183C58.8771 49.0431 61.4337 46.7991 62.8311 43.0371C65.4507 35.981 60.412 30.738 55.6736 29.8307C55.6736 29.8307 56.9826 32.2014 57.1862 33.9145C57.1862 33.9138 60.1723 37.2033 57.8914 42.938ZM64.9944 14.6522C64.6571 14.4018 63.5378 13.4262 63.1207 13.0974C62.7996 12.8485 62.2803 11.0808 63.8728 11.0447C64.6756 11.0255 65.3908 11.6339 65.6566 11.7945L66.1037 10.6698C65.8336 10.6144 65.5701 10.5305 65.3178 10.4194C65.0013 10.2857 64.4251 10.0437 63.8728 10.0437C63.3189 10.0437 61.7978 10.3671 61.7118 12.0073C61.6403 13.3662 62.5507 14.0246 62.891 14.295C63.3727 14.6515 64.6034 15.5972 65.1572 16.3654C65.7119 17.1328 65.9969 18.7399 64.0149 18.9719C63.3358 18.9712 62.5891 18.6339 62.1758 18.365L62.3363 19.7578C62.7473 19.6848 62.9801 19.7732 63.1568 19.7939C63.461 19.8277 63.8728 19.9191 64.2623 19.9007C64.6571 19.883 66.6752 19.5443 66.6752 17.5968C66.6745 15.8837 65.4761 15.0448 64.9944 14.6522ZM57.4758 85.9682C58.5414 85.9682 59.5285 85.9536 60.3374 85.379L60.2967 84.1621C59.5761 84.8835 58.579 85.0095 57.4758 85.0095C55.2734 85.0095 53.4865 83.0091 53.4865 80.8066C53.4865 78.6041 55.2734 76.672 57.4758 76.672C58.4768 76.672 59.4056 76.9493 60.1646 77.5447L60.0309 76.3463C59.2612 75.8569 58.4545 75.7141 57.4758 75.7141C54.7433 75.7141 52.5277 78.0732 52.5277 80.8066C52.527 83.5407 54.7433 85.9682 57.4758 85.9682ZM40.8662 85.7554C42.1784 85.7554 43.4369 85.2342 44.3647 84.3063C45.2926 83.3784 45.8139 82.1199 45.8139 80.8077C45.8139 79.4955 45.2926 78.237 44.3647 77.3092C43.4369 76.3813 42.1784 75.86 40.8662 75.86C39.554 75.86 38.2955 76.3813 37.3676 77.3092C36.4398 78.237 35.9185 79.4955 35.9185 80.8077C35.9185 82.1199 36.4398 83.3784 37.3676 84.3063C38.2955 85.2342 39.554 85.7554 40.8662 85.7554ZM40.8662 76.8187C41.9071 76.8438 42.897 77.2749 43.6244 78.0199C44.3517 78.765 44.7589 79.765 44.7589 80.8062C44.7589 81.8474 44.3517 82.8474 43.6244 83.5924C42.897 84.3375 41.9071 84.7686 40.8662 84.7936C39.8084 84.7938 38.7939 84.3739 38.0456 83.6263C37.2974 82.8786 36.8767 81.8643 36.8761 80.8066C36.8765 79.7487 37.2971 78.7342 38.0453 77.9864C38.7936 77.2386 39.8083 76.8185 40.8662 76.8187ZM65.9593 85.7708L66.6914 84.5931C66.1951 84.8605 65.1388 84.8605 64.4766 84.8605C63.8198 84.8605 63.5133 84.5232 63.5133 84.2367V80.9871C63.5133 80.5922 63.7629 80.4693 64.0671 80.4693H65.8156V79.466H64.0687C63.7645 79.466 63.5148 79.3447 63.5148 78.9498V77.3765C63.5148 77.0922 63.819 76.7534 64.4781 76.7534C65.1403 76.7534 65.7296 76.7534 66.2281 77.0208L65.9585 75.8439H62.3709C62.4439 76.0406 62.4954 76.218 62.513 76.5752L62.5146 85.0387C62.5094 85.2897 62.4608 85.5379 62.3709 85.7723L65.9593 85.7708ZM48.7274 85.0379C48.7223 85.2878 48.6743 85.5349 48.5852 85.7685L49.8697 85.77C49.7816 85.5351 49.733 85.2872 49.726 85.0364H49.7276V80.5385L52.4402 75.8439H51.2802L49.2643 79.3969L47.247 75.8439H46.0862L48.7281 80.5385L48.7274 85.0379ZM48.9171 53.0731C48.702 52.3472 47.9146 50.7762 47.5213 50.1278C46.0624 50.3736 44.7034 50.455 43.6302 50.455L43.631 49.6707C43.1317 49.8474 40.9154 50.1685 39.9881 50.2784V65.9531C39.9881 67.5963 39.2729 68.3791 38.7728 69.0951H44.8433C44.3431 68.3791 43.6295 67.5963 43.6295 65.9546L43.631 53.5264C45.5116 53.4972 47.32 53.3397 48.9171 53.0731ZM49.6631 18.2022V10.5415C49.68 10.1843 49.7353 10.0068 49.8075 9.81093L48.5215 9.8117C48.5922 10.0084 48.6444 10.1851 48.6659 10.5415V19.0057C48.6582 19.256 48.6094 19.5034 48.5215 19.7378H52.1091L52.8412 18.5586C52.3418 18.826 51.2886 18.8252 50.6279 18.826C49.9657 18.826 49.6631 18.488 49.6631 18.2022ZM41.5115 9.8263C40.8544 9.81482 40.2015 9.93435 39.5911 10.1779C38.9807 10.4215 38.4249 10.7842 37.9561 11.2449C37.4874 11.7056 37.1151 12.255 36.861 12.8611C36.6069 13.4673 36.4761 14.1179 36.4762 14.7752C36.4763 15.4324 36.6073 16.083 36.8616 16.6891C37.1159 17.2951 37.4883 17.8445 37.9572 18.305C38.4261 18.7656 38.982 19.1281 39.5925 19.3715C40.203 19.6148 40.8559 19.7342 41.513 19.7225C42.8102 19.6994 44.0465 19.1679 44.9557 18.2423C45.8648 17.3167 46.3741 16.0711 46.3739 14.7736C46.3737 13.4762 45.864 12.2308 44.9546 11.3054C44.0452 10.3801 42.8087 9.84896 41.5115 9.8263ZM41.5123 18.763C40.9805 18.7758 40.4515 18.6821 39.9564 18.4874C39.4614 18.2927 39.0102 18.001 38.6296 17.6294C38.2489 17.2578 37.9465 16.8138 37.7399 16.3236C37.5334 15.8333 37.427 15.3067 37.427 14.7748C37.427 14.2428 37.5334 13.7162 37.7399 13.226C37.9465 12.7358 38.2489 12.2918 38.6296 11.9202C39.0102 11.5486 39.4614 11.2568 39.9564 11.0622C40.4515 10.8675 40.9805 10.7738 41.5123 10.7866C42.5534 10.8116 43.5435 11.2428 44.271 11.988C44.9985 12.7332 45.4057 13.7333 45.4057 14.7748C45.4057 15.8162 44.9985 16.8164 44.271 17.5616C43.5435 18.3068 42.5534 18.7379 41.5123 18.763ZM56.4825 18.2022L56.481 10.5415C56.4979 10.1851 56.5547 10.0076 56.6254 9.81093L55.3394 9.8117C55.4101 10.0084 55.4654 10.1851 55.4838 10.5415V19.0057C55.4773 19.2562 55.4285 19.5037 55.3394 19.7378H58.9285L59.6591 18.5586C59.1598 18.826 58.1065 18.8252 57.4459 18.826C56.7852 18.826 56.4825 18.488 56.4825 18.2022ZM32.5618 14.2013L33.025 14.2036C33.5978 14.1885 34.1421 13.9503 34.542 13.5397C34.9418 13.1292 35.1655 12.5788 35.1655 12.0057C35.1655 11.4327 34.9418 10.8823 34.542 10.4717C34.1421 10.0612 33.5978 9.82301 33.025 9.80786L29.8668 9.8117C29.9383 10.0076 29.9913 10.1851 30.0082 10.5423V19.0065C30.0029 19.2571 29.9549 19.505 29.8661 19.7394H31.1521V19.7378C31.063 19.5037 31.0142 19.2562 31.0076 19.0057V14.8274C31.0076 14.5063 31.2043 14.5232 31.348 14.7022L35.6154 19.7371H36.9168L32.4895 14.5224C32.3828 14.3972 32.4012 14.2013 32.5618 14.2013ZM31.0061 13.1888V10.7927H33.0227C33.3335 10.8038 33.6279 10.9351 33.8438 11.159C34.0598 11.3828 34.1805 11.6817 34.1805 11.9927C34.1805 12.3037 34.0598 12.6026 33.8438 12.8264C33.6279 13.0502 33.3335 13.1815 33.0227 13.1926L31.0061 13.1888Z" fill="black" stroke="black" stroke-width="0.165935" stroke-miterlimit="22.926"/>
<path d="M31.6354 65.1677L37.7051 65.1662C37.2057 64.4502 36.4913 63.6674 36.4913 62.0242L36.4921 49.5975C40.5836 49.5291 44.0014 48.8539 46.7416 47.7653C50.9177 52.2379 51.417 58.7393 51.4892 60.5216C51.5599 62.31 50.6326 63.881 49.203 65.167H57.131C55.9157 64.5232 55.4878 62.8101 55.4179 61.1669C54.632 53.7397 50.4905 47.9558 49.488 46.4547C54.1933 43.6331 56.2729 39.3088 56.2729 35.3156C56.2729 28.6735 50.4168 25.5308 45.3465 25.5308H31.9926C32.4919 26.2444 32.8484 26.5302 32.8484 28.1727V62.0234C32.8484 63.6674 32.1355 64.4525 31.6354 65.1677ZM36.4921 27.8877H44.3471C49.7738 27.8877 51.5599 31.317 51.4892 34.9576C51.132 45.0281 41.1329 46.5292 36.4921 46.5292V27.8877Z" fill="black" stroke="black" stroke-width="0.165935" stroke-miterlimit="22.926"/>
<path d="M67.922 6.97607H27.9101C27.3118 6.97709 26.7383 7.21521 26.3153 7.63826C25.8922 8.06132 25.6541 8.63481 25.6531 9.2331V86.4167C25.6531 87.0213 25.8882 87.586 26.3153 88.0146C26.5242 88.2246 26.7728 88.391 27.0466 88.5042C27.3203 88.6173 27.6139 88.675 27.9101 88.6738H67.9588C68.5619 88.6738 69.0912 88.4395 69.5176 88.0146C69.9439 87.586 70.1413 87.0213 70.1413 86.4167V9.23233C70.1413 7.98935 69.1673 6.97607 67.922 6.97607ZM68.7885 86.5834C68.7885 87.0398 68.4175 87.4131 67.9588 87.4131H27.9101C27.8012 87.4132 27.6934 87.3916 27.5929 87.3497C27.4924 87.3078 27.4012 87.2463 27.3247 87.1688C27.2473 87.0923 27.1859 87.0011 27.1441 86.9006C27.1023 86.8001 27.0809 86.6923 27.0812 86.5834L27.082 73.9662H68.7893L68.7885 86.5834ZM68.7885 72.3729H27.082V22.5671L68.7893 22.5286L68.7885 72.3729ZM68.7885 20.9346H27.082V9.06716C27.082 8.84592 27.168 8.63696 27.3247 8.48101C27.4814 8.32507 27.6889 8.23749 27.9101 8.23749H67.9588C68.1789 8.2379 68.3898 8.32554 68.5453 8.48122C68.7009 8.63689 68.7883 8.84788 68.7885 9.06793V20.9346Z" fill="black" stroke="black" stroke-width="0.165935" stroke-miterlimit="22.926"/>
<path d="M48.0268 29.3481L39.1339 29.3489C39.6356 30.0618 39.992 30.3476 39.992 31.99V45.4154C41.1689 45.3094 42.8106 44.7732 43.6311 44.4874V31.705H50.0626C49.7038 30.8139 48.7405 29.7776 48.0268 29.3481Z" fill="black" stroke="black" stroke-width="0.165935" stroke-miterlimit="22.926"/>
<defs>
<linearGradient id="paint0_linear_58_3227" x1="47.8967" y1="2.84604" x2="47.8967" y2="92.9864" gradientUnits="userSpaceOnUse">
<stop stop-color="#E8E8E8"/>
<stop offset="1" stop-color="#9C9C9C"/>
</linearGradient>
<linearGradient id="paint1_linear_58_3227" x1="27.8094" y1="5.90429" x2="71.8544" y2="98.0928" gradientUnits="userSpaceOnUse">
<stop offset="0.083" stop-color="white"/>
<stop offset="0.611" stop-color="#A8A8A8"/>
<stop offset="1" stop-color="white"/>
</linearGradient>
</defs>
</svg>
