<svg width="96" height="96" viewBox="0 0 96 96" fill="none" xmlns="http://www.w3.org/2000/svg">
<path fill-rule="evenodd" clip-rule="evenodd" d="M80.3585 11.6482V13.3162L47.9989 7.64498L15.6418 13.3162V11.6482L47.9989 5.9397L80.3585 11.6482Z" fill="white"/>
<path fill-rule="evenodd" clip-rule="evenodd" d="M80.3585 9.94238V11.6482L47.9989 5.93964L15.6418 11.6482V9.94238L47.9989 4.23535L80.3585 9.94238Z" fill="#33A457"/>
<path fill-rule="evenodd" clip-rule="evenodd" d="M80.3585 13.3162L47.9989 7.64502L15.6418 13.3162L15.6423 19.0705L15.9227 18.9117C16.0368 18.8479 27.5186 12.482 48.0612 12.482C68.6053 12.482 79.9531 18.8494 80.0682 18.9127L80.3456 19.072L80.3585 13.3162Z" fill="#CC2131"/>
<path fill-rule="evenodd" clip-rule="evenodd" d="M48.0616 13.594C66.6126 13.594 77.4753 18.8144 79.2359 19.7298V36.2956C79.2359 45.327 77.1088 54.3241 72.9163 63.0418C63.7394 82.0828 49.9308 89.5594 47.9994 90.535C46.0665 89.5594 32.2474 82.0828 23.073 63.0418C18.8805 54.3241 16.7539 45.327 16.7539 36.2956V19.7318C18.5304 18.8174 29.5072 13.594 48.0616 13.594Z" fill="#FFF22D"/>
<path fill-rule="evenodd" clip-rule="evenodd" d="M15.9232 18.9111L15.6428 19.07V36.2957C15.6428 45.4965 17.8058 54.6569 22.072 63.5215C32.0871 84.3146 47.6139 91.5885 47.7693 91.6597L47.9994 91.7648L48.229 91.6597C48.3859 91.5885 63.8998 84.3126 73.9144 63.5215C78.1826 54.6569 80.3461 45.4965 80.3461 36.2957V19.0715L80.0686 18.9121C79.9541 18.8489 68.6058 12.4814 48.0617 12.4814C27.5191 12.4814 16.0373 18.8474 15.9232 18.9111ZM48.0617 13.5941C66.6126 13.5941 77.4754 18.8145 79.2359 19.7299V36.2957C79.2359 45.3271 77.1088 54.3242 72.9163 63.0419C63.7394 82.0829 49.9308 89.5595 47.9994 90.5351C46.0665 89.5595 32.2474 82.0829 23.0731 63.0419C18.8806 54.3242 16.7539 45.3271 16.7539 36.2957V19.7319C18.5305 18.8175 29.5072 13.5941 48.0617 13.5941Z" fill="black"/>
<path fill-rule="evenodd" clip-rule="evenodd" d="M52.9207 74.4823C53.4595 74.8549 53.0686 75.5018 52.6697 75.6029C52.2543 75.716 51.8992 75.2548 51.698 75.7603C51.5849 76.0317 51.8917 78.0881 53.9954 78.0881C55.9592 78.0881 56.896 75.5671 57.0808 75.1876C57.2666 74.8091 57.3861 74.326 57.2003 74.326C56.3387 74.326 56.0877 74.8374 56.0877 74.8374C56.0877 74.8374 56.0225 74.3454 56.4508 73.9738C56.8039 73.6705 57.2671 73.7442 57.4344 73.7442C57.7855 73.7442 57.7302 73.4828 57.9424 72.9653C58.426 71.7476 58.7587 71.6928 59.0729 71.1375C59.3334 70.6853 58.8414 70.508 57.8707 70.4168C56.897 70.3242 56.3756 70.3636 55.9408 70.4268C55.505 70.4891 55.0712 70.6659 54.8008 71.3322C54.6558 71.6933 54.9213 72.0489 55.4313 71.9568C55.9408 71.8617 56.4313 71.4762 56.4313 71.4762C56.4313 71.4762 56.2017 72.3886 55.4412 72.5773C54.736 72.7507 53.9033 72.3253 54.0154 71.6116C54.1613 70.6858 54.8013 70.0075 55.9687 69.7789C57.1381 69.5433 58.3035 69.7236 59.3429 69.9791C60.3788 70.2405 61.1413 70.0822 62.1045 70.0259C64.1813 69.9148 65.4683 69.4248 65.4683 69.4248C65.4683 69.4248 64.5324 70.1843 63.2351 70.5354C61.9377 70.8895 60.7807 70.7426 60.4062 70.8895C60.1039 71.019 59.6766 71.6191 59.3245 72.3049C59.0007 72.9354 58.6561 73.6621 58.805 73.6621C60.0112 73.7079 60.453 73.4439 60.453 73.4439C60.453 73.4439 60.2145 73.9644 59.6397 74.2104C59.2408 74.3718 58.5639 74.3718 58.5639 74.3718C58.5639 74.3718 58.2596 75.1422 57.917 75.8375C57.5719 76.5323 57.0066 77.6175 55.9891 78.1544C54.9676 78.6903 53.0143 79.3586 51.7841 77.5891C50.4828 75.7329 51.6706 73.6212 52.9207 74.4823ZM37.8176 74.7244C38.0577 75.339 37.5477 75.6592 37.2514 75.6592C36.954 75.6592 36.584 75.4386 36.5068 75.8101C36.4361 76.1787 37.2962 78.0797 39.2973 78.0797C41.2994 78.0797 42.2273 76.9212 42.0863 75.8833C41.9294 74.7249 40.0892 74.2647 38.6225 73.4932C37.9048 73.1167 36.2827 72.8647 36.2827 71.3462C36.2827 68.104 41.2168 70.1748 41.2168 70.1748C41.2168 70.1748 41.2272 69.7694 41.4568 69.7505C41.5679 69.74 41.791 69.6962 41.8652 70.0627C41.9384 70.4323 42.2646 72.3796 42.2646 72.3796C42.2646 72.3796 41.5395 70.897 39.5493 70.2495C39.1972 70.126 37.6578 69.8331 37.6667 71.0518C37.6852 71.7755 38.5672 72.1002 40.0962 72.6939C42.1058 73.4818 43.1352 74.2154 42.6606 76.3281C42.2088 78.3566 40.2257 78.6903 39.2615 78.6903C38.2992 78.6903 36.085 78.0154 36.085 75.7897C36.085 74.2159 37.6289 74.2527 37.8176 74.7244ZM48.3606 62.5334L49.1709 62.9174C49.6381 63.0982 49.9364 63.0185 50.0435 62.9737C50.1566 62.9248 50.5844 62.4657 50.6775 62.0747C50.7213 61.9153 50.6979 61.7769 50.6133 61.6748C50.298 61.3012 49.7397 59.5855 49.5325 58.6581C49.4558 58.314 49.5489 57.3642 49.6212 56.5998C49.6844 55.9433 49.7233 55.5354 49.6904 55.4304C49.6351 55.268 49.3926 55.1111 49.1137 54.9343L48.6719 54.6335C48.4363 54.4408 48.4259 54.1783 48.4129 53.8964L48.3661 53.4586C48.2635 53.0512 46.1902 50.9336 45.8689 50.9141C45.4033 50.8838 45.2822 51.3947 45.2524 51.702C45.2339 51.8818 45.4416 52.6847 45.6289 53.3964L45.8356 54.2545C46.0477 55.6037 47.4821 57.9798 48.0937 58.9938L48.384 59.4869C48.5095 59.7728 48.4607 59.9984 48.2376 60.1249C48.021 60.2494 46.1568 60.0546 45.2663 59.8495C44.8838 59.7618 44.4117 59.5711 43.951 59.3843C43.4236 59.1741 42.9235 58.9699 42.6347 58.9555C42.2975 58.938 42.1376 59.0063 42.0136 59.0636L41.8114 59.1198L41.6102 59.0556C41.3632 58.9465 40.9015 58.7473 39.641 58.6332C37.8037 58.4609 37.6657 58.8305 37.591 59.0302C37.4999 59.2842 38.623 60.4785 38.8237 60.6383C39.0792 60.8445 39.9054 61.1588 40.4099 61.0751C40.9867 60.9825 41.927 60.866 42.0435 60.8894L42.2328 61.0049L42.4086 61.1294C42.5679 61.1947 43.5949 61.2509 43.9052 61.2674C44.2633 61.2868 45.2036 61.4815 45.8908 61.6255L46.6588 61.7804C46.9596 61.8356 47.7346 62.2181 48.3606 62.5334Z" fill="black"/>
<path fill-rule="evenodd" clip-rule="evenodd" d="M67.3668 38.7057C67.3259 38.6554 67.292 38.6524 67.2706 38.6579C67.2512 38.6643 67.2248 38.6828 67.2173 38.7425C67.1835 38.9985 66.8622 39.6564 66.6072 39.7535C66.0908 39.9533 65.8233 40.5589 65.6296 41.0001C65.5305 41.2277 65.4339 41.4449 65.3572 41.4479C65.3243 41.4504 65.2879 41.415 65.2481 41.3413C64.9298 40.7925 65.1081 39.9533 65.2511 39.2769L65.284 39.1111C65.4005 38.5408 66.0679 37.742 66.4668 37.2629L66.6431 37.0507C66.9145 36.712 66.9828 35.5645 66.932 35.4784C66.9155 35.4734 66.9046 35.4829 66.8981 35.4928C66.8919 35.4978 66.8867 35.5039 66.8827 35.5108L66.8767 35.5098V35.5157C66.8602 35.5337 66.8463 35.5357 66.8329 35.5934C66.7616 35.952 66.1062 36.6806 64.9866 37.6488C64.757 37.8476 64.4956 38.2066 64.2814 38.495C64.1434 38.6843 63.9816 38.9024 63.9387 38.9129C63.6613 37.4327 64.1634 36.5865 64.4019 36.1776L64.513 35.9699C64.9866 34.681 66.2063 33.7049 66.2193 33.6959C66.2357 33.6585 66.2357 33.6187 66.2058 33.5933C66.159 33.5574 66.0733 33.5729 65.9384 33.6406L65.8647 33.6775C65.4393 33.8842 64.1564 34.5092 63.3695 36.0143C62.8042 37.098 62.5856 38.3092 62.5856 39.2226C62.5856 39.6888 62.6419 40.0753 62.7375 40.3313C63.0139 41.0684 63.498 42.9002 63.6469 43.6193C63.7395 44.0651 63.754 45.5955 63.754 46.5548C63.754 47.0234 63.752 47.3516 63.752 47.3641C63.749 47.3641 63.5079 48.142 63.5079 48.142C63.5069 48.15 63.3904 48.7576 62.3973 49.7731C61.3973 50.7946 60.2836 51.1193 60.2737 51.1233C59.8264 51.1581 59.4185 51.1397 59.4041 51.0814C59.4041 49.914 57.405 47.1982 56.382 46.3023C55.3381 45.3874 54.5039 44.7319 53.0865 43.8693C51.6432 42.9908 50.038 39.3078 50.0196 39.2719L49.8806 38.7744C49.8806 38.7744 49.8029 37.7808 49.7815 37.5223C49.8338 37.5522 49.902 37.5945 49.902 37.5945L50.3941 37.8809L50.9594 38.0981C50.9643 38.0996 51.6994 38.2435 51.6994 38.2435C51.6994 38.245 52.1108 38.4557 52.1108 38.4557L52.4923 38.7037L53.0855 39.132L53.6946 39.4522C53.707 39.4557 54.4262 39.4926 54.4262 39.4926L54.4426 39.4333C54.4426 39.4333 53.6099 39.0423 53.6079 39.0423C53.6079 39.0304 53.3081 38.5174 53.3081 38.5174C53.1915 38.35 53.0751 38.1825 52.959 38.0149C52.9475 38.0069 52.5262 37.7554 52.5262 37.7554C52.3478 37.7283 52.1692 37.703 51.9903 37.6797C51.9903 37.6752 51.8852 37.5851 51.8309 37.5363C51.8777 37.5089 51.9659 37.4541 51.9659 37.4541C51.9659 37.4606 52.5396 37.5268 52.5416 37.5268C52.5416 37.5328 53.0521 37.8799 53.0521 37.8799L53.6094 38.3092C53.6184 38.3137 54.1368 38.5149 54.1368 38.5149L54.2051 38.5418L53.9775 37.9496C53.8352 37.8133 53.6919 37.678 53.5477 37.5437L52.9161 37.0069C52.9112 37.0024 52.4201 36.7494 52.4201 36.7494C52.4151 36.7484 51.8912 36.5716 51.8912 36.5716C51.8912 36.5706 51.3369 36.217 51.3369 36.217C51.3369 36.217 51.3428 36.1791 51.3468 36.1467C51.417 36.1736 52.1143 36.4535 52.1143 36.4535C52.1183 36.454 52.7827 36.6348 52.7827 36.6348C52.7817 36.6323 53.34 36.848 53.34 36.848C53.338 36.846 54.1413 37.2379 54.1413 37.2379C54.1483 37.2414 54.8137 37.3859 54.8137 37.3859C54.8251 37.3864 55.6344 37.2414 55.6344 37.2414C55.6449 37.2365 56.4164 36.6996 56.4164 36.6996C56.4253 36.6851 56.5673 36.3659 56.5673 36.3659L56.5977 36.2922L56.3496 36.3948C56.3476 36.3948 55.6494 36.7494 55.6484 36.7494L55.1648 36.8574C55.1648 36.855 54.6189 36.7479 54.6179 36.7479H54.6189C54.6189 36.7414 54.1762 36.3295 54.1762 36.3295L53.5477 35.7209L52.9794 35.4301C52.9714 35.4266 52.307 35.319 52.307 35.319C52.307 35.3175 51.9026 35.1118 51.8957 35.1083C51.8977 35.1083 51.8987 35.1009 51.8987 35.0904C51.8987 35.0416 51.8862 34.935 51.8812 34.8852L52.7169 34.9554L53.6323 34.8817C53.6323 34.8842 54.1478 34.9893 54.1478 34.9893L54.6692 35.2045L55.2031 35.2767L55.2993 35.2896L54.7041 34.7204C54.6981 34.7174 54.104 34.2881 54.104 34.2881C54.097 34.2846 53.6059 34.1048 53.6059 34.1048C53.597 34.1028 52.7782 34.0336 52.7618 34.0321C52.7687 34.0316 52.7697 34.0176 52.7697 33.9972C52.7697 33.9474 52.7618 33.8767 52.7573 33.8403L53.1442 33.7746C53.1442 33.7771 53.7638 33.9165 53.7638 33.9165C53.7638 33.9185 54.3505 34.2706 54.3505 34.2706L54.9845 34.4873C55.0029 34.4878 55.9104 34.3453 55.9104 34.3453L55.9646 34.3379L55.6882 33.9728C55.6728 33.9609 55.2166 33.8189 55.2156 33.8189C55.2156 33.8164 54.8391 33.538 54.8391 33.538L54.2778 33.1436C54.2698 33.1391 53.851 32.9967 53.851 32.9967C53.844 32.9942 53.1836 32.8886 53.1816 32.8881C53.1816 32.8811 52.8569 32.5823 52.8499 32.5773C52.8599 32.5753 52.8803 32.4712 52.8878 32.4239L53.2369 32.5215L53.6861 32.7357L54.3241 32.9379L54.1832 32.6565L53.9351 32.3975L53.718 32.1176L53.8121 32.0942C53.8121 32.1027 54.4909 32.4488 54.4909 32.4488L55.0199 32.6291C55.0199 32.6321 55.4283 33.0151 55.4283 33.0151C55.4342 33.0201 56.2072 33.4563 56.2072 33.4563L56.2849 33.5002L56.1439 33.1227C56.14 33.1142 55.7206 32.5778 55.7206 32.5778L55.3715 31.9742C55.3685 31.9672 54.7365 31.3242 54.7365 31.3242C54.7305 31.3183 53.9262 30.8885 53.9242 30.8885C53.9242 30.885 53.6179 30.5378 53.6179 30.5378C53.4304 30.3471 53.2433 30.156 53.0566 29.9646C53.0566 29.9571 52.9993 29.7609 52.9699 29.6613C53.0651 29.6917 53.5148 29.8411 53.5148 29.8411L54.1443 30.0189C54.1443 30.0204 54.5935 30.3003 54.5935 30.3003C54.5935 30.3033 54.9681 30.758 54.9681 30.758C54.9815 30.7684 55.5782 31.0194 55.5782 31.0194L57.0987 31.2167L57.1873 31.2276L56.77 30.7883C56.7595 30.7804 55.9537 30.4223 55.9537 30.4223L55.4701 30.0697C55.4701 30.0632 55.1997 29.5781 55.1997 29.5781L54.9178 29.0781C54.9128 29.0706 54.4576 28.6418 54.4576 28.6418C54.4506 28.6368 53.8903 28.3151 53.8903 28.3151L53.336 27.8539C53.336 27.8494 53.2025 27.573 53.1174 27.3887L53.5023 27.7598L54.2379 28.4037C54.2469 28.4092 54.8082 28.6597 54.8082 28.6597L55.2888 29.0482L55.8471 29.618C55.8665 29.6269 56.7391 29.7499 56.7391 29.7499L56.8482 29.7659L55.9622 28.9984C55.9622 28.9844 55.7619 28.3694 55.7619 28.3694C55.6087 28.2203 55.4539 28.0727 55.2978 27.9266L55.0567 27.6432C55.0567 27.6358 54.8167 26.9041 54.8167 26.9041C54.6516 26.7324 54.4853 26.5619 54.3176 26.3927C54.3176 26.3887 53.5173 25.6421 53.5153 25.6391V25.6376C53.5153 25.6262 53.4869 25.5121 53.4705 25.4369C53.5317 25.4678 53.6154 25.5121 53.6154 25.5121L54.35 25.9399C54.357 25.9434 55.2315 26.1934 55.2315 26.1934L56.1439 26.4096L57.1983 26.5779L56.9503 26.0764C56.9328 26.0605 56.4084 25.8468 56.4084 25.8468L55.9218 25.5629C55.9168 25.5614 55.3227 25.3104 55.3227 25.3104L54.7992 25.0963C54.7992 25.0913 54.4596 24.653 54.2703 24.411C54.4521 24.533 54.7325 24.7237 54.7325 24.7237C54.7459 24.7282 55.2041 24.7646 55.2041 24.7646L56.641 24.7651C56.641 24.769 57.2227 25.0833 57.2227 25.0843C57.2227 25.0863 57.7187 25.6212 57.7187 25.6212L57.784 25.6914L57.7237 25.0878C57.7177 25.0704 57.4025 24.6764 57.4025 24.6764C57.3935 24.6694 56.5513 24.2043 56.5513 24.2043L55.882 23.9523C55.877 23.9508 54.8685 23.7725 54.8635 23.7725V23.771C54.8635 23.7615 54.6707 23.5319 54.6707 23.5319C54.6668 23.5299 53.9326 22.8506 53.9326 22.8506C53.814 22.7886 53.695 22.7273 53.5756 22.6668C53.5756 22.6648 53.4635 22.5498 53.3938 22.4771H53.7713C53.7713 22.483 54.35 22.8307 54.35 22.8307C54.355 22.8342 55.1274 23.0832 55.1274 23.0832L56.1131 23.2271H56.1121C56.1121 23.2376 56.4776 23.647 56.4776 23.647L57.0105 23.9742C57.2127 24.0115 57.415 24.0475 57.6176 24.0823L57.7023 24.0957L56.4552 22.5677C56.4472 22.5602 55.8511 22.239 55.8511 22.239C55.8461 22.236 55.1469 22.0214 55.1469 22.0214C55.1469 22.0139 54.5313 21.3156 54.5313 21.3156C54.5243 21.3082 53.7534 20.8445 53.7534 20.8445C53.567 20.7973 53.3802 20.7519 53.1931 20.708C53.2279 20.6518 53.344 20.4605 53.344 20.4595C53.346 20.465 53.9615 20.1866 53.9615 20.1866C53.9615 20.1881 54.864 20.0103 54.864 20.0103C54.8884 19.9894 54.9566 19.7737 54.9566 19.7737C54.9452 19.7374 54.5597 19.4873 54.5597 19.4873C54.4059 19.4374 54.2518 19.3883 54.0975 19.3399C54.0691 19.3434 53.8251 19.4863 53.8251 19.4873C53.8251 19.4829 53.07 19.5172 53.07 19.5172C53.07 19.5167 52.1676 19.3046 52.1676 19.3036C52.1676 19.2991 51.2378 18.5241 51.2378 18.5241C51.0954 18.4509 50.9528 18.3781 50.8099 18.306C50.7995 18.304 49.2635 18.1242 49.2595 18.1242C49.2595 18.1048 48.8985 17.5659 48.8985 17.5659L48.4044 17.026C48.4024 17.023 47.7754 16.4573 47.7754 16.4573L47.756 16.4986L47.5458 16.9638C47.5468 16.9593 47.3386 17.281 47.3386 17.281V17.289C47.3386 17.3483 47.368 17.659 47.368 17.659C47.377 17.6785 47.5802 17.8866 47.5846 17.8926C47.5742 17.8926 47.5079 18.2164 47.5079 18.2188C47.506 18.1964 46.6653 18.2308 46.6638 18.2308C46.6638 18.2268 45.977 17.9116 45.977 17.9116C45.9725 17.9086 45.4461 17.7303 45.4461 17.7303C45.4356 17.7268 44.2109 17.7646 44.2109 17.7646C44.184 17.7786 43.9763 18.1003 43.9763 18.1003L43.9485 18.1426L44.4873 18.2203C44.4873 18.2223 44.567 18.2731 44.6113 18.3015L44.4734 18.4141C44.4734 18.4071 43.7238 18.3727 43.7238 18.3727C43.7114 18.3747 43.184 18.5884 43.184 18.5884L43.1292 18.6118L43.3907 18.7876C43.4071 18.7936 44.5272 18.8289 44.5272 18.8289L45.3589 19.0431V19.0441C45.3589 19.0555 45.5173 19.2817 45.5173 19.2817C45.5173 19.2817 45.6298 19.4405 45.6722 19.5028L45.3161 19.699C45.3206 19.6985 44.3041 20.1273 44.3041 20.1273L42.2028 21.3072C42.2008 21.3052 40.8193 21.5114 40.8193 21.5114C40.8088 21.5149 40.2784 21.8102 40.2784 21.8102C40.267 21.8182 39.8411 22.4083 39.8411 22.4083C39.8366 22.4158 39.5956 23.1504 39.5956 23.1504C39.5767 24.3985 39.6265 24.4274 39.6444 24.4374C39.6857 24.4633 40.0463 24.6674 40.3252 24.518C40.641 24.3462 41.3168 24.1774 41.6679 24.1027C41.8413 24.0673 41.9224 24.1296 41.9369 24.1938C41.9558 24.264 41.9035 24.3597 41.774 24.395L41.7013 24.4164C41.0907 24.5823 40.4677 24.783 40.4881 25.0186L40.5957 25.1984C40.8681 25.3971 41.5763 25.3029 41.9523 25.2178L42.3448 25.1077C42.6834 25.0046 43.0684 24.8896 43.3971 24.9264C43.5869 24.9483 43.7542 25.03 43.9519 25.1232C44.2199 25.2526 44.5262 25.3996 44.9829 25.4294C45.7444 25.4822 46.2643 25.6361 46.3052 25.681C46.4073 25.8886 46.3415 26.1959 46.2902 26.443L46.2509 26.6666C46.0377 28.5995 43.8797 30.7849 42.8398 31.8332C42.5589 32.1171 42.3732 32.3044 42.3333 32.3826L42.2138 32.659C42.1127 32.9155 42.0305 33.1366 41.7008 33.2691C41.5101 33.3433 41.0653 33.678 40.5493 34.0644C39.8043 34.6203 38.8804 35.3115 38.6259 35.2817C38.2001 35.2314 36.2114 33.8622 36.1278 33.7781C34.1909 31.904 33.3806 32.2884 32.8955 32.5175L32.8188 32.5534C32.2411 32.8164 31.6344 34.4529 31.5797 34.804L31.3456 35.8121L31.1658 36.5526C31.1125 36.8032 30.8739 37.4187 30.6463 38.0134L30.1792 39.3083C30.102 39.6081 29.9147 40.0295 29.7623 40.3701L29.5556 40.8746C29.4117 41.4668 29.4092 44.71 29.6597 44.9969L29.6707 45.0089L29.72 45.0233C29.9715 44.9974 30.5114 44.4411 30.7703 44.1726L30.8301 44.1104C31.0492 43.8903 31.2818 43.3026 31.2818 43.0555C31.2818 42.8135 31.1688 42.3075 31.124 42.1695C30.7733 41.0987 30.9058 40.0783 30.9696 39.5892L30.995 39.3711C31.0134 39.1439 31.241 38.8924 31.4621 38.6514L31.7415 38.3282C31.8949 38.124 32.0653 38.0562 32.2172 37.996L32.4667 37.8535L32.5055 37.8132C32.6709 37.6473 32.9483 37.3674 33.0698 36.9929L33.3069 35.9675L33.3587 35.6935C33.3706 35.6387 33.3985 35.6084 33.4448 35.5984C33.5389 35.5775 33.6799 35.6522 33.7402 35.7324L35.4544 37.7215C35.8937 38.0956 36.3449 38.5418 36.3449 38.6399L36.3444 38.6484C36.3444 38.6469 36.3339 38.6489 36.3339 38.6489C36.0939 38.6738 34.8861 38.4163 34.6854 38.359C33.0444 37.8779 32.2953 37.9626 31.7176 38.6858C31.0592 39.514 31.2664 42.0505 31.4009 42.3284C31.5244 42.5804 32.125 45.6707 32.1519 46.0826C32.1788 46.4865 32.3352 47.2087 32.4985 47.3745L32.5434 47.4204C32.7456 47.6206 33.2785 48.156 33.3726 48.6839C33.4742 49.2586 34.6949 50.7976 35.1606 50.9355C35.1955 50.9456 35.2323 50.9473 35.268 50.9404C35.3036 50.9334 35.3372 50.9181 35.3658 50.8957C35.7209 50.6437 35.8822 49.412 35.9016 48.8921C35.9246 48.2441 35.692 47.9308 35.4449 47.5957L35.3503 47.4647C35.1685 47.2167 34.8483 47.1265 34.6371 47.0672C34.547 47.0418 34.4235 47.012 34.4235 46.9841C34.4235 46.9746 34.3986 46.0253 34.0958 45.8421C33.8602 45.6971 33.6191 44.7812 33.5907 44.4326C33.5634 44.0865 33.4294 43.2508 33.2496 42.8837C33.0678 42.5152 32.9149 41.8358 32.9926 41.3119C33.025 41.0868 33.1853 41.0161 33.3158 40.9957C33.5409 40.9598 33.8009 41.0569 33.8413 41.1356C33.9309 41.3159 35.6616 42.3598 36.2453 42.5839C36.6079 42.7214 37.0984 43.1357 37.5317 43.5053C37.84 43.7638 38.105 43.9864 38.2703 44.0656C38.4934 44.1731 39.1259 44.1856 39.6339 44.1956C39.9034 44.2 40.1833 44.2065 40.2211 44.2289C40.0149 44.3116 40.0174 44.6732 40.0344 44.7897C40.245 46.2853 45.6861 50.3937 46.107 50.6242C46.594 50.8857 48.3412 52.71 48.4941 52.9581C48.6524 53.2031 48.8063 53.4695 48.7769 53.6747C48.7351 53.978 48.8566 54.3247 49.0997 54.6076C49.3323 54.871 49.6356 55.0299 49.916 55.0299C50.159 55.0299 50.3214 54.8118 50.4414 54.6544L50.4668 54.6215C50.7915 54.1917 51.2731 53.5622 51.3354 52.5775C51.4016 51.568 51.8628 51.1671 52.0132 51.1407C52.0804 51.1283 52.1297 51.1487 52.1477 51.193C52.1661 51.2388 52.1437 51.3155 52.0525 51.3758C51.8533 51.5107 51.7288 51.9575 51.5924 52.4351C51.5914 52.4391 51.5416 52.9227 51.5416 52.9227C51.5301 53.2838 51.5162 53.6932 51.1556 54.0901C50.6157 54.6748 49.9961 56.023 49.8358 57.7253C49.7387 58.7507 50.2003 60.2279 51.2074 62.1105L51.2776 62.245L51.55 62.7022C51.8254 63.1449 52.2856 63.881 52.2642 64.0534C52.2348 64.2964 52.2119 64.4872 51.7926 65.0136C51.3314 65.5923 49.6485 67.5506 49.4842 67.5815C49.1495 67.5815 49.0932 67.6243 48.8238 67.8285L48.5399 68.0446C48.2291 68.2653 48.1748 68.4306 48.1225 68.5765C48.0842 68.6866 48.0478 68.7827 47.9034 68.8908L47.7953 68.9635C47.7729 68.983 47.7121 69.0686 47.0358 69.7454C46.2604 70.5119 45.9142 71.3795 46.0337 72.2416C46.0721 72.5111 46.3042 72.6052 46.9925 72.6366C47.6798 72.6684 49.2556 71.5658 49.3258 71.2067L49.3502 71.0697C49.4104 70.746 49.5116 70.2002 49.6899 70.1215C49.905 70.0273 50.2736 69.602 50.544 69.2927L50.5963 69.2345C50.7402 69.0681 50.7751 68.9028 50.8094 68.7454C50.8388 68.6209 50.8657 68.4954 50.9474 68.3808C51.0116 68.2972 51.1058 68.2513 51.2148 68.201C51.424 68.1009 51.6875 67.9734 51.8772 67.4968C52.066 67.0296 53.1926 66.2213 54.0153 65.6331C54.4357 65.3343 54.7654 65.0953 54.8441 64.9902C54.9521 64.8492 55.0184 64.5778 55.0184 64.2899C55.0184 63.9483 54.9267 63.5847 54.7121 63.3825C54.3998 63.0926 54.106 62.23 54.0183 61.9596V61.9536C54.0183 61.8416 54.0078 61.6364 53.9909 61.2544C53.9889 61.237 53.9889 61.2185 53.9889 61.2021C53.9889 60.1916 55.491 59.203 56.1395 58.7771L56.4353 58.5729C58.7865 56.4991 59.2467 54.9223 59.3339 54.4895L59.3817 53.9711C59.3961 53.612 59.4081 53.2698 59.6247 53.225C59.7094 53.2086 59.8503 53.2768 59.936 53.3789C59.9848 53.4342 60.0565 53.5492 60.0087 53.6822C59.9016 53.9731 59.8658 56.897 59.8648 57.0186C59.8728 57.039 60.1178 57.3278 60.1178 57.3278L60.1626 57.3801L60.1761 57.3119C60.179 57.278 60.314 56.4812 60.314 56.1993C60.314 55.884 60.821 54.5338 60.9435 54.5104C60.9435 54.5144 60.9515 54.5259 60.9515 54.5259C61.0108 54.7126 61.0865 55.1738 61.0865 55.6599C61.0865 56.1375 61.0143 56.6396 60.7822 56.9304C60.4301 57.3662 60.1497 58.056 59.9669 58.5112L59.7976 58.8982C59.7784 58.9518 59.7701 59.0087 59.7731 59.0655C59.7731 59.436 59.9639 60.2259 60.0894 60.3729C60.1223 60.4077 60.1487 60.4077 60.1671 60.4012C60.2079 60.3858 60.2448 60.333 60.2448 60.0227C60.2448 58.8409 61.2379 57.9838 61.2498 57.9773C62.1254 57.2825 62.3161 55.9941 62.3161 55.0125C62.3161 54.2694 62.2071 53.7021 62.2041 53.6867C62.0656 53.4813 61.9255 53.2771 61.7837 53.0741C61.8041 53.0841 61.9182 52.9904 61.9561 52.96C61.9939 53.0089 62.3928 53.5378 62.3928 53.5378C62.4601 53.6319 62.6304 53.9063 62.6304 54.0154C62.6304 54.6235 62.724 55.0399 62.7908 55.3452L62.8072 55.4174C62.8774 55.7411 63.3152 56.7755 63.3346 56.8198L63.3814 56.9289L63.3959 56.8104C63.3959 56.8054 63.4651 56.2645 63.3959 55.8019C63.356 55.5424 63.4058 55.2241 63.4561 54.8805L63.5358 54.0916C63.5358 53.4506 63.4442 53.0457 63.2156 52.6772L63.0991 52.5004C63.0532 52.4281 63.0084 52.3574 63.0134 52.343L63.0991 52.3061C64.9483 51.6786 65.8089 50.317 66.1595 49.5629C66.5271 48.7641 66.5465 47.5339 66.5465 47.2973C66.5465 46.9891 66.533 45.3904 66.2646 44.5691C66.1072 44.0845 66.1575 43.564 66.2103 43.0023L66.2676 42.0405C66.2676 41.3826 66.6137 40.8941 66.9494 40.4219L67.3493 39.8024C67.6108 39.2864 67.4718 38.8347 67.3668 38.7057Z" fill="black"/>
<path fill-rule="evenodd" clip-rule="evenodd" d="M46.6678 18.1133C46.6987 18.1153 47.0916 17.9286 47.0916 17.9286C47.109 17.8932 47.0179 17.5212 47.0179 17.5212C46.7343 17.1848 46.4492 16.8496 46.1628 16.5156L46.1204 16.4663L46.106 16.5281L46.0144 16.931C46.0148 16.927 45.7429 17.5774 45.7429 17.5774L45.7305 17.6048L46.3032 17.8977L46.6678 18.1133Z" fill="black"/>
<path fill-rule="evenodd" clip-rule="evenodd" d="M46.8379 20.6946C46.9286 20.7285 47.0655 20.7135 47.195 20.6558C47.3932 20.5626 47.5103 20.4033 47.46 20.2892L47.3688 20.207C47.2792 20.1727 47.1422 20.1881 47.0147 20.2469C46.8449 20.3226 46.7363 20.4486 46.7363 20.5557C46.7363 20.5751 46.7418 20.596 46.7483 20.6124L46.8379 20.6946ZM50.2589 19.2827L50.4223 19.3708C50.4354 19.3991 50.4547 19.4241 50.4788 19.4439C50.5028 19.4637 50.531 19.4779 50.5613 19.4854C50.5961 19.4926 50.6321 19.4919 50.6666 19.4833C50.7011 19.4747 50.7332 19.4584 50.7605 19.4356C50.8043 19.4012 50.8148 19.337 50.7869 19.2558C50.743 19.1208 50.6021 18.9734 50.4502 18.9734C50.2545 18.9734 50.0757 18.9958 50.0757 19.1402C50.0762 19.2214 50.1693 19.2523 50.2589 19.2827ZM50.4547 19.8599C50.379 19.9157 50.3456 19.9909 50.367 20.0671L50.3825 20.1303C50.4019 20.205 50.4089 20.2205 50.4776 20.2284L50.6021 20.2509C50.7615 20.2917 51.0135 20.1926 51.0707 20.0651C51.0902 20.0238 51.1056 19.9436 50.997 19.8679C50.8103 19.7434 50.5802 19.7703 50.4547 19.8599ZM50.9642 22.0767C50.9184 22.0548 50.9378 21.982 50.9731 21.8765C51.0015 21.7903 51.0274 21.7076 50.9831 21.6623C50.9442 21.6249 50.875 21.6279 50.7575 21.6718C50.3342 21.8242 50.2694 22.2555 50.2226 22.5707L50.2081 22.6678C50.1837 22.8083 50.256 22.8561 50.3008 22.872C50.4467 22.9238 50.7102 22.7914 50.7694 22.6903C50.8357 22.5812 51.2012 22.4816 51.4677 22.4089L51.5698 22.381C51.6933 22.3471 51.7566 22.2998 51.7655 22.2355C51.779 22.1514 51.6858 22.0747 51.6032 22.0254C51.5265 21.98 51.4124 22.0124 51.2929 22.0468C51.1743 22.0792 51.0468 22.1125 50.9642 22.0767ZM46.4898 22.2385C46.5834 22.2291 46.6566 22.1927 46.7029 22.126C46.8379 21.9248 46.8449 21.6399 46.7139 21.3814C46.5874 21.1349 46.3708 20.977 46.1496 20.969L46.1526 20.97L46.1043 20.9636L45.6969 20.9954C45.4818 21.0432 45.282 21.2021 45.2337 21.3585C45.2093 21.4377 45.2233 21.5099 45.2776 21.5642C45.6043 21.9103 46.1686 22.2629 46.4898 22.2385ZM42.4781 21.9108C42.5269 22.0308 42.7505 22.0443 43.0787 21.9467L43.1509 21.9248L43.7391 21.6947L44.5913 21.1344C44.6162 21.115 44.8388 20.9476 44.793 20.8405C44.7606 20.7703 44.6495 20.7828 44.5693 20.7977C44.3343 20.8405 44.1037 20.9536 43.8581 21.0731L43.5115 21.234L43.3586 21.2967C42.8312 21.5149 42.3989 21.7106 42.4781 21.9108ZM40.6861 22.5344C40.5088 22.5344 40.4291 22.6305 40.3644 22.7157L40.2852 22.8053C40.1488 22.9223 40.1069 23.2052 40.1239 23.4204C40.1308 23.51 40.1562 23.6724 40.2444 23.7242C40.4132 23.8283 40.4939 23.7551 40.6662 23.5912L40.7997 23.4767C40.969 23.3347 41.1658 23.1738 41.1902 22.9263C41.2021 22.8217 41.1772 22.7356 41.1189 22.6708C41.0153 22.5583 40.8261 22.5344 40.6861 22.5344ZM41.6663 22.6126C41.6155 22.6016 41.5851 22.6175 41.5692 22.634C41.5179 22.6843 41.5388 22.7919 41.5547 22.878L41.5647 22.9383L41.5542 22.9746C41.5428 23.0055 41.5298 23.0449 41.5542 23.0782C41.5761 23.1116 41.6294 23.126 41.7201 23.126C41.8351 23.127 41.8466 23.1151 41.8854 23.0125L41.9163 22.9333C41.9442 22.8636 41.9447 22.8008 41.9183 22.751C41.871 22.6634 41.7534 22.63 41.6663 22.6126ZM42.614 24.1485C42.6742 24.1457 42.731 24.1199 42.7725 24.0763C42.8141 24.0328 42.8373 23.9749 42.8373 23.9147C42.8373 23.8545 42.8141 23.7966 42.7725 23.753C42.731 23.7095 42.6742 23.6836 42.614 23.6809C42.5836 23.681 42.5536 23.6873 42.5256 23.6991C42.4976 23.711 42.4722 23.7283 42.4509 23.75C42.4296 23.7717 42.4128 23.7974 42.4015 23.8256C42.3902 23.8538 42.3846 23.884 42.3849 23.9144C42.3849 24.0434 42.4871 24.1485 42.614 24.1485ZM46.8837 23.5788C46.8508 23.5726 46.8169 23.5756 46.7855 23.5874C46.7542 23.5991 46.7267 23.6192 46.7059 23.6455C46.6427 23.7192 46.2577 23.9832 45.9763 24.1764L45.6132 24.4344L45.5839 24.4628C45.5385 24.5056 45.5161 24.532 45.5455 24.6207L45.5898 24.6829L45.6855 24.6635L45.8269 24.6112L46.0306 24.5793C46.2313 24.5534 46.4509 24.5235 46.5545 24.4175L46.6895 24.1968L46.8902 23.8746C46.9863 23.7685 46.9913 23.6958 46.9779 23.6545C46.9701 23.6348 46.9573 23.6174 46.9408 23.6041C46.9243 23.5909 46.9046 23.5821 46.8837 23.5788ZM47.3056 24.8806C47.3056 24.9997 47.3648 25.0465 47.3982 25.0629C47.4884 25.1107 47.6178 25.0644 47.695 24.9568L47.956 24.7297C48.0975 24.6281 48.2553 24.5136 48.3953 24.3358C48.5248 24.1689 48.469 24.0663 48.4227 24.0225C48.334 23.9358 48.1517 23.9159 48.09 23.9667L48.0148 24.018C47.844 24.1291 47.4396 24.3916 47.3379 24.7108C47.3179 24.7652 47.3069 24.8226 47.3056 24.8806ZM49.0059 24.7521C48.9526 24.6744 48.861 24.6421 48.7927 24.6754L48.6089 24.8149C48.4795 24.9205 48.3181 25.0544 48.1781 25.0938C47.8385 25.1849 47.3778 25.3368 47.3494 25.5699L47.3489 25.6003C47.3489 25.6645 47.3778 25.7029 47.4057 25.7243C47.5347 25.8294 47.8479 25.7671 48.0745 25.6815C48.4222 25.553 48.6333 25.3961 48.9063 25.1481C49.0741 24.9952 49.0666 24.8423 49.0059 24.7521ZM47.6851 27.4366L47.5745 27.4241C47.2886 27.5003 46.8006 28.341 46.4579 28.9675L46.3967 29.0761L45.3697 31.0035L45.0475 31.6171C45.0116 31.6729 45.0241 31.7546 45.0778 31.8079C45.1277 31.8577 45.2148 31.885 45.3204 31.8183C45.4917 31.7043 46.1168 31.0842 46.4066 30.5971L46.7926 30.0647C47.0401 29.7415 47.322 29.3799 47.4874 28.9491L47.5456 28.8007C47.9376 27.7842 47.9988 27.6288 47.6851 27.4366ZM51.5469 23.7317C51.5176 23.731 51.4886 23.7361 51.4613 23.7467C51.434 23.7573 51.4091 23.7731 51.388 23.7933C51.3668 23.8135 51.3499 23.8377 51.3381 23.8645C51.3263 23.8912 51.3199 23.9201 51.3193 23.9493C51.3193 24.0693 51.4214 24.1669 51.5469 24.1669C51.6724 24.1669 51.7725 24.0693 51.7725 23.9493C51.772 23.9202 51.7658 23.8914 51.7542 23.8647C51.7426 23.838 51.7259 23.8138 51.7049 23.7936C51.6839 23.7734 51.6592 23.7575 51.6321 23.7469C51.605 23.7362 51.576 23.7311 51.5469 23.7317ZM51.4388 24.6396C51.4388 24.7601 51.5409 24.8577 51.6664 24.8577C51.6954 24.858 51.7241 24.8527 51.751 24.8419C51.7778 24.8311 51.8023 24.8151 51.823 24.7948C51.8437 24.7746 51.8601 24.7504 51.8715 24.7238C51.8828 24.6971 51.8888 24.6685 51.889 24.6396C51.8884 24.5811 51.8646 24.5254 51.8228 24.4845C51.7811 24.4436 51.7248 24.4209 51.6664 24.4214C51.6074 24.4205 51.5504 24.4429 51.5078 24.4837C51.4652 24.5246 51.4404 24.5806 51.4388 24.6396ZM51.648 25.1222C51.506 25.1222 51.3885 25.2163 51.3885 25.3289C51.3885 25.4429 51.506 25.536 51.648 25.536C51.7919 25.536 51.9085 25.4434 51.9085 25.3289C51.9089 25.2163 51.7919 25.1222 51.648 25.1222ZM51.6375 25.7258C51.4742 25.7258 51.3437 25.8289 51.3437 25.9559C51.3437 26.0819 51.4742 26.185 51.6375 26.185C51.8009 26.185 51.9294 26.0814 51.9294 25.9559C51.9294 25.8289 51.8009 25.7258 51.6375 25.7258ZM51.648 26.4918C51.4682 26.4918 51.3193 26.5989 51.3193 26.7338C51.3193 26.8668 51.4682 26.9739 51.648 26.9739C51.8288 26.9739 51.9747 26.8668 51.9747 26.7338C51.9747 26.5989 51.8288 26.4918 51.648 26.4918ZM51.5369 27.7757C51.7411 27.7578 51.891 27.6457 51.8796 27.5163L51.8153 27.3987C51.7451 27.3394 51.6226 27.3096 51.4981 27.321C51.3008 27.3389 51.1549 27.4455 51.1549 27.5675L51.1559 27.58L51.2222 27.697C51.2939 27.7578 51.4109 27.7877 51.5369 27.7757ZM51.0907 28.4162L51.0897 28.4102L51.0907 28.4162ZM51.5255 28.5821C51.7541 28.5482 51.9154 28.4227 51.897 28.2932L51.8298 28.1856C51.7501 28.1244 51.6071 28.1 51.4612 28.1214C51.2366 28.1527 51.0712 28.2807 51.0897 28.4102L51.1589 28.5173C51.2396 28.5791 51.3795 28.6025 51.5255 28.5821ZM51.1405 28.971C51.1405 29.112 51.3118 29.2245 51.5364 29.2245C51.76 29.2245 51.9294 29.112 51.9294 28.971C51.9294 28.8301 51.76 28.719 51.5364 28.719C51.3113 28.7195 51.1405 28.8301 51.1405 28.971ZM51.8407 29.7953C51.8407 29.6459 51.6365 29.5318 51.3755 29.5318C51.1176 29.5318 50.9134 29.6459 50.9134 29.7953C50.9134 29.9437 51.1176 30.0597 51.3755 30.0597C51.6365 30.0597 51.8407 29.9437 51.8407 29.7953ZM51.5439 30.491C51.5439 30.3451 51.391 30.2271 51.2062 30.2271C51.0185 30.2271 50.8656 30.3451 50.8656 30.491C50.8656 30.637 51.0185 30.7555 51.2062 30.7555C51.3915 30.7555 51.5439 30.637 51.5439 30.491ZM51.3845 31.3611C51.3845 31.1973 51.2232 31.0623 51.0224 31.0623C50.8242 31.0623 50.6634 31.1973 50.6634 31.3611C50.6634 31.5265 50.8237 31.6594 51.0224 31.6594C51.2232 31.6594 51.3845 31.5265 51.3845 31.3611ZM51.0907 32.2078C51.0907 32.0604 50.9582 31.9433 50.7968 31.9433C50.6365 31.9433 50.501 32.0599 50.501 32.2078C50.501 32.3527 50.636 32.4712 50.7968 32.4712C50.9582 32.4717 51.0907 32.3527 51.0907 32.2078ZM50.5817 32.7088C50.4263 32.7088 50.2978 32.8268 50.2978 32.9733C50.2978 33.1182 50.4263 33.2362 50.5817 33.2362C50.7366 33.2362 50.8636 33.1177 50.8636 32.9733C50.8641 32.8268 50.7366 32.7088 50.5817 32.7088ZM50.3416 33.9793C50.501 33.9793 50.6365 33.8767 50.6365 33.7497C50.6365 33.6227 50.5015 33.5216 50.3416 33.5216C50.1813 33.5216 50.0498 33.6232 50.0498 33.7497C50.0498 33.8762 50.1813 33.9793 50.3416 33.9793ZM50.0712 34.5356C50.2191 34.5356 50.3406 34.4495 50.3406 34.3409C50.3406 34.2328 50.2211 34.1471 50.0712 34.1471C49.9163 34.1471 49.7988 34.2323 49.7988 34.3409C49.7988 34.4495 49.9203 34.5356 50.0712 34.5356ZM49.8087 35.0705C49.9497 35.0705 50.0692 34.9833 50.0692 34.8753C50.0692 34.7682 49.9497 34.681 49.8087 34.681C49.6638 34.681 49.5492 34.7682 49.5492 34.8753C49.5487 34.9833 49.6638 35.0705 49.8087 35.0705ZM42.13 34.5969L42.1768 34.6058L42.5314 34.5421C42.8461 34.4724 43.3203 34.3663 43.9035 34.3508C44.3298 34.3394 44.792 34.4883 45.1277 34.5979C45.4325 34.6995 45.5844 34.7433 45.6421 34.6805C45.6785 34.6392 45.6561 34.5789 45.6362 34.5366C45.5445 34.3389 45.1431 33.6889 43.8332 33.6591C42.9821 33.6396 42.2883 34.2184 42.1399 34.4629C42.1105 34.5127 42.1026 34.5496 42.1175 34.577L42.13 34.5969ZM47.0008 37.0592C47.084 37.0059 47.1198 36.9118 47.1143 36.7768C47.0864 36.2469 46.9445 36.1866 46.6521 36.1866C46.3558 36.1866 46.1417 36.4839 46.1417 36.6383C46.1417 36.7833 46.2482 36.9103 46.4549 37.0139C46.572 37.0756 46.8414 37.1638 47.0008 37.0592ZM51.0195 43.5372C51.4418 43.7344 51.5902 43.8046 51.6535 43.824C51.6554 43.824 51.6574 43.83 51.6574 43.83C51.6574 43.83 51.6604 43.8275 51.6604 43.8265C51.6898 43.8355 51.6993 43.832 51.7062 43.822C51.7023 43.8191 51.6858 43.7942 51.6769 43.7872C51.6818 43.7832 51.6868 43.7727 51.6868 43.7727C51.6868 43.7727 51.6604 43.7618 51.6584 43.7593C51.379 43.4067 49.6967 41.0146 49.3386 39.4403C49.2823 39.1808 49.2161 38.9393 49.0467 38.8427C48.9516 38.7894 48.8316 38.7854 48.6856 38.8342H48.6846C48.6508 38.8441 48.6264 38.872 48.6109 38.9129C48.5965 38.9572 48.5902 39.0038 48.5925 39.0503C48.5925 39.6126 49.1917 41.1605 49.3874 41.4788C50.4701 43.2364 50.999 43.5252 51.0195 43.5372ZM64.7713 44.221L64.7071 44.2334C64.709 44.2434 64.7235 44.713 64.7235 45.3162C64.7235 46.1957 64.6931 47.3686 64.5407 47.8955C64.4172 48.3223 63.8509 49.1396 63.3937 49.7935C63.3937 49.7935 62.8618 50.5914 62.8618 50.5924C62.8466 50.6191 62.8389 50.6493 62.8394 50.68C62.8394 50.7587 62.8793 50.8329 62.9495 50.8793C63.0028 50.9161 63.1955 51.0107 63.464 50.6905L63.8036 50.3314C64.2568 49.8792 64.8201 49.3179 65.217 48.0788C65.6523 46.7186 64.7788 44.2444 64.7713 44.221ZM50.6026 48.6525C50.6434 48.6934 50.7097 48.7048 50.7789 48.6799C50.8322 48.6615 50.879 48.6279 50.9136 48.5833C50.9481 48.5388 50.969 48.4851 50.9736 48.4289C50.9901 48.2586 51.1086 48.03 51.2849 47.8347C51.3768 47.7303 51.4246 47.5943 51.4183 47.4554C51.412 47.3164 51.352 47.1853 51.251 47.0897L51.0254 46.9995C50.8805 47.0045 50.7724 47.1206 50.7664 47.124C50.6908 47.4859 50.617 47.8482 50.5448 48.2108V48.2098C50.5234 48.27 50.504 48.5579 50.6026 48.6525ZM57.9387 52.6637L57.9273 52.6588L57.9158 52.6637C57.9068 52.6707 57.7176 52.7589 57.6638 52.9436C57.6269 53.0681 57.6957 53.1762 57.7495 53.2654L57.8127 53.3839L57.8401 53.6205L57.8829 53.9686C57.8936 54.0046 57.9161 54.0359 57.9469 54.0575C57.9776 54.079 58.0148 54.0895 58.0523 54.0871C58.1409 54.0841 58.244 54.0159 58.2779 53.8779C58.3237 53.6912 58.3461 53.4382 58.3461 53.1015C58.3451 52.7942 57.9561 52.6677 57.9387 52.6637ZM46.5525 49.8314C46.5271 49.802 43.8377 46.8835 43.2565 46.119C42.6643 45.3356 42.3815 45.2763 42.0916 45.4367C42.0702 45.4489 42.0521 45.4661 42.0389 45.4868C42.0256 45.5076 42.0176 45.5312 42.0154 45.5557C41.9736 45.874 42.6454 46.6439 43.2336 47.2092C44.0559 48.0006 46.4848 49.8608 46.5097 49.8792L46.5525 49.8314ZM36.0115 41.2178C35.4667 40.8796 34.5234 40.6919 34.5139 40.6879L34.489 40.7452L35.5354 41.5341C35.7077 41.6755 36.4692 42.1481 36.7153 41.9549C36.7312 41.9429 36.744 41.9272 36.7525 41.9091C36.761 41.8911 36.765 41.8712 36.7641 41.8513C36.7561 41.7094 36.4922 41.5196 36.0115 41.2178ZM35.7561 36.7529L35.8298 36.7215C35.9239 36.6154 35.7072 36.3141 35.4438 36.0706C35.2062 35.8514 34.9647 35.71 34.8382 35.717L34.7664 35.7478C34.7511 35.7666 34.7433 35.7904 34.7445 35.8146C34.7445 35.952 34.9328 36.1951 35.1514 36.3993C35.3895 36.6184 35.633 36.7608 35.7561 36.7529ZM38.552 36.3719L38.445 36.3784C38.2418 36.4635 37.919 36.98 37.6615 37.6339C37.4803 38.0956 37.3433 38.5991 37.3433 38.9024C37.3433 39.0464 37.3742 39.144 37.4429 39.1729L37.5485 39.1664C37.7517 39.0797 38.0734 38.5623 38.3339 37.9103C38.5147 37.4476 38.6502 36.9441 38.6502 36.6403C38.6502 36.4974 38.6208 36.3993 38.552 36.3719ZM33.5189 33.1824C33.2564 33.1824 33.0472 33.3069 33.0472 33.4643C33.0472 33.6207 33.2564 33.7437 33.5189 33.7437C33.7853 33.7437 33.9925 33.6207 33.9925 33.4643C33.9925 33.3069 33.7853 33.1824 33.5189 33.1824ZM31.845 36.6672L31.9266 36.6597C32.0686 36.59 32.2832 36.204 32.4451 35.7224C32.6164 35.21 32.71 34.6596 32.5442 34.6009L32.464 34.6093C32.3196 34.6805 32.1054 35.0655 31.9451 35.5466C31.7707 36.0596 31.6826 36.6099 31.845 36.6672ZM32.2832 39.3183C32.4227 39.1315 32.4506 38.9213 32.347 38.8427L32.2264 38.8168C32.1258 38.8297 32.0058 38.9144 31.9162 39.0394C31.7767 39.2261 31.7488 39.4358 31.8519 39.513L31.9729 39.5414C32.0731 39.526 32.1946 39.4423 32.2832 39.3183ZM32.1229 42.2218L32.1114 42.2149L32.0591 42.2094C31.8708 42.2532 32.0033 43.073 32.1004 43.5043C32.2384 44.1064 32.4252 44.5925 32.5547 44.6732L32.5656 44.6812L32.6169 44.6866C32.8082 44.6428 32.6727 43.8191 32.5761 43.3917C32.4391 42.7861 32.2543 42.303 32.1229 42.2218ZM30.2263 43.3225C30.0744 43.3225 29.9519 43.4351 29.9519 43.5755C29.9519 43.709 30.0744 43.8215 30.2263 43.8215C30.3772 43.8215 30.5037 43.709 30.5037 43.5755C30.5042 43.4351 30.3777 43.3225 30.2263 43.3225ZM34.886 49.2731C34.802 49.2727 34.7212 49.3055 34.6612 49.3643C34.6012 49.4232 34.5669 49.5033 34.5657 49.5873C34.5657 49.7567 34.7097 49.8966 34.886 49.8966C34.9696 49.8981 35.0504 49.8664 35.1107 49.8084C35.171 49.7505 35.2059 49.671 35.2077 49.5873C35.2065 49.5031 35.172 49.4227 35.1117 49.3638C35.0514 49.3049 34.9703 49.2723 34.886 49.2731ZM50.6385 57.5634C50.6484 57.5789 50.6773 57.6307 50.7211 57.6257L50.7396 57.6247L50.7734 57.5739L51.0623 56.6934L51.2879 56.1067L51.4806 55.6604C51.5399 55.5105 51.5399 55.4104 51.4816 55.3521C51.389 55.2675 51.1978 55.3397 51.1743 55.3482C51.1589 55.3606 50.6315 56.2411 50.6315 56.2411C50.5284 56.3985 50.4895 56.6107 50.4895 56.8288C50.4895 57.1396 50.5672 57.4499 50.6385 57.5634ZM51.9563 61.9621L51.9667 61.8735C51.9737 61.8212 52.1321 60.5965 51.7556 60.1234C51.7171 60.0721 51.6684 60.0294 51.6124 59.9981C51.5565 59.9668 51.4946 59.9475 51.4308 59.9416C51.3178 59.9311 51.2401 59.964 51.1973 60.0352C50.9677 60.4107 51.8686 61.8252 51.9085 61.8864L51.9563 61.9621ZM54.0655 64.2919C54.0225 64.2914 53.9798 64.2994 53.9399 64.3154C53.9 64.3314 53.8636 64.3551 53.8329 64.3852C53.8022 64.4152 53.7777 64.4511 53.7609 64.4906C53.744 64.5302 53.7351 64.5727 53.7348 64.6157C53.7348 64.7975 53.8827 64.9384 54.0655 64.9384C54.1512 64.9384 54.2334 64.9043 54.294 64.8437C54.3546 64.7831 54.3887 64.7009 54.3887 64.6152C54.3887 64.5294 54.3546 64.4472 54.294 64.3866C54.2334 64.326 54.1512 64.2919 54.0655 64.2919ZM49.0995 60.3475C48.9446 60.3475 48.8126 60.468 48.8126 60.6169C48.8126 60.7698 48.9451 60.8873 49.0995 60.8873C49.2579 60.8873 49.3854 60.7698 49.3854 60.6169C49.3854 60.468 49.2579 60.3475 49.0995 60.3475ZM52.7183 65.1237L52.6834 65.1157C52.5121 65.1157 51.8636 65.683 51.3108 66.2487C51.262 66.3005 50.0617 67.5317 50.2206 67.6921L50.2296 67.702L50.2684 67.71C50.4417 67.71 51.0892 67.1407 51.639 66.5779C51.6908 66.5256 52.8931 65.299 52.7292 65.1326L52.7183 65.1237ZM49.114 68.4521C49.0138 68.4521 48.857 68.5457 48.717 68.6856C48.5497 68.853 48.4282 69.0846 48.5178 69.1797L48.5238 69.1857L48.5178 69.1797L48.6065 69.2116C48.7086 69.2116 48.8659 69.1199 49.0054 68.977C49.1687 68.8077 49.2942 68.5811 49.2011 68.4849L49.114 68.4521ZM47.5327 70.7306C47.4097 70.7306 47.2359 70.8317 47.084 70.9856C46.9251 71.145 46.8339 71.3213 46.8339 71.4438C46.8339 71.4906 46.8464 71.5285 46.8758 71.5548L46.9878 71.5977C47.1089 71.5977 47.2876 71.4996 47.4366 71.3447C47.6572 71.1191 47.7458 70.8775 47.6457 70.7729L47.5327 70.7306ZM39.2657 59.2543C39.0287 59.2543 38.8359 59.3892 38.8359 59.5596C38.8359 59.7289 39.0292 59.8594 39.2657 59.8594C39.5048 59.8594 39.6955 59.7289 39.6955 59.5596C39.696 59.3892 39.5048 59.2543 39.2657 59.2543ZM42.7669 59.4993C42.5986 59.4993 42.4676 59.59 42.4676 59.7095C42.4676 59.8215 42.5986 59.9137 42.7669 59.9137C42.9293 59.9137 43.0638 59.821 43.0638 59.7095C43.0638 59.5924 42.9293 59.4993 42.7669 59.4993ZM47.0401 60.9292L47.066 60.8893C47.1143 60.6881 46.1063 60.3739 45.5674 60.2374C44.9205 60.0721 44.1515 59.9396 43.9817 60.0417L43.9697 60.0496L43.9423 60.0915C43.8935 60.2947 44.901 60.605 45.4409 60.7459C46.0874 60.9083 46.8563 61.0368 47.0287 60.9357L47.0401 60.9292Z" fill="white"/>
</svg>
